<svg width="66" height="66" fill="none" xmlns="http://www.w3.org/2000/svg"><path fill-rule="evenodd" clip-rule="evenodd" d="M6.826 33.558c-3.065-6.111-.805-13.647 5.33-16.812L31.889 6.568c6.145-3.17 13.61-.631 16.804 5.43 4.367 7.4 6.852 11.886 10.53 20.412 3.069 6.113.809 13.651-5.329 16.817L34.161 59.405c-6.135 3.165-13.586.64-16.789-5.401-4.666-7.643-7.024-12.21-10.546-20.446Zm3.413-1.595c-2.248-4.358-.617-9.673 3.644-11.87L33.615 9.914c4.26-2.197 9.537-.446 11.785 3.912 4.368 7.403 6.777 11.748 10.411 20.184 2.248 4.358.617 9.673-3.644 11.871L32.435 56.059c-4.26 2.198-9.537.447-11.785-3.912-4.636-7.588-6.917-12.005-10.411-20.183Z" fill="#FA4E1D"/><path d="M13.88 20.094c-4.261 2.198-5.893 7.512-3.645 11.87 3.495 8.18 5.775 12.596 10.412 20.184 2.248 4.359 7.524 6.11 11.785 3.912l19.732-10.178c4.26-2.198 5.892-7.512 3.644-11.87-3.634-8.437-6.043-12.782-10.412-20.184-2.248-4.359-7.524-6.11-11.785-3.912L13.88 20.094Z" fill="#FA4E1D"/><g filter="url(#a)"><path fill-rule="evenodd" clip-rule="evenodd" d="M9.483 21.497C9.56 14.66 15.023 9 21.928 9H44.13c6.914 0 12.384 5.678 12.445 12.528.488 8.58.64 13.705 0 22.969C56.5 51.337 51.035 57 44.13 57H21.928C15.024 57 9.56 51.34 9.483 44.503c-.643-8.932-.645-14.072 0-23.006Zm3.764.148c0-4.904 3.887-8.88 8.68-8.88H44.13c4.794 0 8.68 3.976 8.68 8.88.49 8.58.638 13.547 0 22.71 0 4.904-3.886 8.88-8.68 8.88H21.928c-4.794 0-8.68-3.976-8.68-8.88-.643-8.87-.644-13.84 0-22.71Z" fill="#fff"/></g><path d="M21.924 12.765c-4.794 0-8.68 3.975-8.68 8.88-.644 8.87-.642 13.84 0 22.71 0 4.904 3.886 8.88 8.68 8.88h22.202c4.794 0 8.68-3.976 8.68-8.88.639-9.164.49-14.13 0-22.71 0-4.905-3.886-8.88-8.68-8.88H21.924Z" fill="#FA4E1D"/><path fill-rule="evenodd" clip-rule="evenodd" d="m17.762 21.808-.012.163c-.628 8.652-.626 13.404 0 22.058l.012.163v.163c0 2.506 1.96 4.361 4.162 4.361h22.202c2.203 0 4.163-1.855 4.163-4.361v-.157l.01-.157c.621-8.91.48-13.672-.003-22.14l-.007-.128v-.129c0-2.505-1.96-4.361-4.163-4.361H21.924c-2.203 0-4.162 1.855-4.162 4.361v.164Zm-4.518-.164c0-4.904 3.886-8.88 8.68-8.88h22.202c4.794 0 8.68 3.976 8.68 8.88.49 8.582.639 13.547 0 22.711 0 4.904-3.886 8.88-8.68 8.88H21.924c-4.794 0-8.68-3.976-8.68-8.88-.642-8.87-.644-13.84 0-22.71Z" fill="#102126"/><path d="M41.646 36.312c-.393 2.704-2.046 4.991-4.336 6.297l-4.364.484-4.363-.485c-2.29-1.305-3.943-3.592-4.336-6.296l8.7-1.332 8.7 1.332Z" fill="#102126"/><path d="M37.31 42.609c2.29-1.306 3.943-3.593 4.336-6.297l-8.7-1.332v8.113l4.364-.484Z" fill="#102126"/><path d="M37.31 42.609a8.726 8.726 0 0 1-4.364 1.157 8.725 8.725 0 0 1-4.363-1.157 5.376 5.376 0 0 1 4.364-2.207c1.802 0 3.387.874 4.363 2.207ZM41.755 33.674v1.346c0 .444-.027.874-.109 1.292a28.115 28.115 0 0 1-8.7 1.358c-2.954 0-5.894-.444-8.7-1.358a6.74 6.74 0 0 1-.108-1.292v-1.346a.7.7 0 0 1 .285-.551.653.653 0 0 1 .61-.081 25.456 25.456 0 0 0 15.827 0 .658.658 0 0 1 .61.08.7.7 0 0 1 .285.552Z" fill="#102126"/><path d="M41.646 36.312c.082-.418.109-.848.109-1.292v-1.346a.7.7 0 0 0-.285-.551.658.658 0 0 0-.61-.081 25.34 25.34 0 0 1-7.914 1.261v3.367c2.941 0 5.895-.444 8.7-1.358ZM37.31 42.609a5.394 5.394 0 0 0-4.364-2.207v3.364a8.726 8.726 0 0 0 4.364-1.157Z" fill="#102126"/><defs><filter id="a" x="4.931" y="9" width="56.138" height="56.138" filterUnits="userSpaceOnUse" color-interpolation-filters="sRGB"><feFlood flood-opacity="0" result="BackgroundImageFix"/><feColorMatrix in="SourceAlpha" values="0 0 0 0 0 0 0 0 0 0 0 0 0 0 0 0 0 0 127 0" result="hardAlpha"/><feOffset dy="4.069"/><feGaussianBlur stdDeviation="2.034"/><feComposite in2="hardAlpha" operator="out"/><feColorMatrix values="0 0 0 0 0 0 0 0 0 0 0 0 0 0 0 0 0 0 0.08 0"/><feBlend in2="BackgroundImageFix" result="effect1_dropShadow_1142_8448"/><feBlend in="SourceGraphic" in2="effect1_dropShadow_1142_8448" result="shape"/></filter></defs></svg>