<svg width="1651" height="36" viewBox="0 0 1651 36" fill="none" xmlns="http://www.w3.org/2000/svg">
<path d="M1.62451 8.16102C81.195 8.16102 161.179 10.7152 240.438 10.7152C287.773 10.7152 335.738 13.1915 382.761 7.59343C495.798 -5.8633 608.44 8.16102 721.896 8.16102C826.845 8.16102 931.488 10.7152 1036.34 10.7152C1070.3 10.7152 1104.26 10.7152 1138.22 10.7152C1156.02 10.7152 1175.78 8.4916 1193.28 11.9922C1301.12 33.56 1437.35 13.2693 1549.44 13.2693C1569.31 13.2693 1593.99 12.192 1612.02 22.2089C1618.38 25.7426 1626.12 25.7343 1632.59 29.1619C1637.35 31.6818 1646.79 29.1725 1649.06 33.7026" stroke="#B5C0D0" stroke-width="3" stroke-linecap="round"/>
</svg>
