<svg width="697" height="488" viewBox="0 0 697 488" fill="none" xmlns="http://www.w3.org/2000/svg">
<path d="M226.267 278.509C231.819 278.448 237.372 278.326 242.924 277.96C249.452 277.533 255.859 276.19 262.388 275.58C263.303 275.519 265.56 274.97 266.354 275.58C267.513 276.496 266.964 279.119 266.598 280.4C264.401 287.355 255.249 289.734 249.086 291.138C243.656 292.419 223.216 294.676 215.04 294.676" stroke="#f6f6f3" stroke-width="2" stroke-miterlimit="10" stroke-linecap="round" stroke-linejoin="round"/>
<path d="M341.707 355.501C319.07 342.507 303.756 317.859 303.756 289.673C303.756 247.883 337.314 214.023 378.682 214.023C420.05 214.023 453.608 247.883 453.608 289.673C453.608 326.4 427.677 357.027 393.326 363.92" stroke="#9384d1" stroke-width="2" stroke-miterlimit="10" stroke-linecap="round" stroke-linejoin="round"/>
<path d="M188.255 315.968V321.703V335.918V411.568H303.878V294.798H198.749" stroke="#9384d1" stroke-width="2" stroke-miterlimit="10" stroke-linecap="round" stroke-linejoin="round"/>
<path d="M253.54 238.67C258.727 238.243 257.934 249.286 256.835 251.909C254.578 257.278 249.88 261.487 245.487 265.087C235.297 273.506 224.009 279.973 212.6 286.44C204.851 290.832 194.356 295.835 190.329 304.376C188.072 309.196 188.072 316.639 188.194 322.13V332.806C188.865 367.764 162.994 393.997 129.863 398.207C97.4645 402.355 72.3874 380.148 64.0894 349.644C54.5101 314.565 67.1401 280.034 93.8036 256.363C94.1087 256.119 94.3527 255.875 94.6578 255.631C123.457 230.495 161.591 218.599 199.237 217.622C237.616 216.646 277.336 227.384 308.332 251.36C309.674 252.397 311.016 253.434 312.298 254.532" stroke="#f6f6f3" stroke-width="2" stroke-miterlimit="10" stroke-linecap="round" stroke-linejoin="round"/>
<path d="M155.001 126.781C154.269 121.778 151.707 119.46 148.229 119.155C144.385 118.85 142.005 123.243 143.836 127.086C145.178 129.831 146.154 131.052 147.314 133.858C148.961 137.946 149.876 142.399 150.242 146.792C150.425 149.049 150.486 151.489 151.402 153.564C152.561 156.126 155.185 157.163 157.686 155.882C160.554 154.479 161.652 151.062 160.554 147.707" stroke="#f6f6f3" stroke-width="2" stroke-miterlimit="10" stroke-linecap="round" stroke-linejoin="round"/>
<path d="M520.602 62.8445C521.029 76.8764 524.934 89.6271 533.538 98.2293C547.754 112.383 576.004 109.333 582.288 132.15C586.62 147.829 568.743 156.431 568.011 171.195" stroke="#f6f6f3" stroke-width="2" stroke-miterlimit="10" stroke-linecap="round" stroke-linejoin="round"/>
<path d="M566.303 57.4753C551.11 25.5069 577.895 2.14067 605.901 1.04252C632.504 0.00538097 651.662 18.0638 657.276 41.6741C664.963 73.8255 647.757 101.706 630.49 127.086C616.274 148.073 586.254 184.373 598.091 212.131C602.179 221.649 612.979 228.848 623.9 226.956C637.263 224.638 645.378 210.179 641.961 199.259" stroke="#f6f6f3" stroke-width="2" stroke-miterlimit="10" stroke-linecap="round" stroke-linejoin="round"/>
<path d="M308.576 116.348C307.844 108.295 299.302 107.38 297.044 112.81C295.458 116.653 296.861 120.68 297.837 124.463C298.875 128.367 299.302 132.455 300.522 136.298C301.437 139.105 302.291 142.887 305.403 144.046C310.833 146.06 313.518 139.837 312.359 135.444" stroke="#f6f6f3" stroke-width="2" stroke-miterlimit="10" stroke-linecap="round" stroke-linejoin="round"/>
<path d="M441.649 116.532C442.381 109.089 450.801 107.503 453.059 112.932C454.645 116.654 453.425 120.436 452.327 124.158C451.168 128.184 449.947 132.211 448.666 136.237C447.751 139.044 446.896 142.826 443.785 143.985C438.354 145.999 435.67 139.776 436.829 135.383" stroke="#f6f6f3" stroke-width="2" stroke-miterlimit="10" stroke-linecap="round" stroke-linejoin="round"/>
<path d="M520.114 56.5607C524.751 92.2505 499.308 116.41 482.712 143.375C439.941 212.864 510.657 288.331 580.824 288.331C651.479 288.331 706.21 220.612 694.129 150.696C689.98 126.659 679.729 104.269 673.628 80.781C668.502 60.9533 670.15 41.6747 677.411 24.7144" stroke="#f6f6f3" stroke-width="2" stroke-miterlimit="10" stroke-linecap="round" stroke-linejoin="round"/>
<path d="M353.3 360.565C357.205 351.841 360.744 343.422 364.404 335.796C367.577 329.207 370.689 322.13 374.167 315.663C376.119 311.942 379.902 300.716 386.248 304.987C390.824 308.037 386.797 315.541 384.905 319.446C380.634 328.475 376.485 337.565 372.336 346.655C370.262 351.17 368.187 355.745 366.113 360.26C365.503 361.48 364.954 362.7 364.343 363.921" stroke="#f6f6f3" stroke-width="2" stroke-miterlimit="10" stroke-linecap="round" stroke-linejoin="round"/>
<path d="M380.695 328.841C382.16 325.424 383.807 322.008 386.065 319.079C387.041 317.798 388.139 316.517 389.543 315.724C392.959 313.711 397.352 315.907 397.291 319.994C397.23 324.692 394.973 329.268 392.959 333.355C389.665 340.188 386.431 347.265 383.685 354.281C382.282 357.82 380.939 361.358 379.475 364.836C379.17 365.629 378.865 366.361 378.621 367.032" stroke="#f6f6f3" stroke-width="2" stroke-miterlimit="10" stroke-linecap="round" stroke-linejoin="round"/>
<path d="M380.329 362.456C380.696 361.358 381.794 358.674 383.075 355.562C383.075 355.501 383.136 355.44 383.136 355.44C385.15 350.499 387.651 344.459 388.811 341.713C388.811 341.713 388.81 341.652 388.872 341.652C389.116 341.103 389.299 340.676 389.421 340.493C390.031 339.212 390.885 337.321 391.861 335.491C392.837 333.66 393.875 331.891 394.912 330.976C396.498 329.451 399.122 329.146 400.891 330.427C405.04 333.477 401.929 339.578 400.586 343.361C395.095 359.101 389.97 374.963 383.502 390.337C377.401 404.979 373.801 420.048 370.445 435.544C367.333 449.942 360.805 465.804 347.625 473.552C333.592 481.788 315.837 486.12 299.607 485.998C266.659 485.815 233.772 483.436 200.885 482.581C181.116 482.093 159.883 480.995 144.629 466.475C129.558 452.138 125.348 431.03 129.619 411.019C135.294 384.846 144.141 358.003 154.452 333.355C162.14 315.114 163.361 301.814 173.123 289.185C182.153 277.533 196.675 273.14 209.244 266.856C224.864 259.047 240.422 250.384 253.541 238.67" stroke="#f6f6f3" stroke-width="2" stroke-miterlimit="10" stroke-linecap="round" stroke-linejoin="round"/>
<path d="M160.554 147.768C161.591 151.55 162.506 155.272 163.361 158.993C166.045 171.317 168.486 185.349 158.662 195.232C139.138 214.938 105.03 211.155 80.5024 221.466C57.3167 231.227 39.7444 249.652 42.3071 276.922C46.273 319.384 94.5968 322.801 115.22 291.381C137.429 257.522 113.328 210.423 82.2108 193.097C56.9506 179.004 25.1009 178.699 1 195.537" stroke="#f6f6f3" stroke-width="2" stroke-miterlimit="10" stroke-linecap="round" stroke-linejoin="round"/>
<path d="M269.099 131.784C272.821 121.229 275.75 111.285 275.567 102.805C274.103 43.7489 200.641 27.5207 164.52 68.1522C147.558 87.2478 150.608 109.272 156.222 131.235" stroke="#f6f6f3" stroke-width="2" stroke-miterlimit="10" stroke-linecap="round" stroke-linejoin="round"/>
<path d="M311.871 133.858C317.24 154.052 326.087 174.245 319.864 195.232C314.372 213.657 287.648 223.967 269.587 212.192C247.195 197.611 254.456 172.171 263.425 147.341" stroke="#f6f6f3" stroke-width="2" stroke-miterlimit="10" stroke-linecap="round" stroke-linejoin="round"/>
<path d="M440.978 119.887C441.71 115.982 442.259 112.078 442.381 108.112C443.602 64.9794 403.393 23.6767 357.876 35.3293C317.972 45.5177 304.549 83.831 308.942 119.094" stroke="#f6f6f3" stroke-width="2" stroke-miterlimit="10" stroke-linecap="round" stroke-linejoin="round"/>
<path d="M437.195 134.163C434.266 143.375 430.666 152.465 428.287 161.739C417.914 201.882 445.127 231.044 466.604 261.121C469.533 265.209 472.279 269.418 474.841 273.75" stroke="#f6f6f3" stroke-width="2" stroke-miterlimit="10" stroke-linecap="round" stroke-linejoin="round"/>
<path d="M353.056 360.809C353.971 358.613 354.886 356.416 355.801 354.22C357.754 349.461 359.828 344.642 362.025 340.005C365.747 332.196 369.652 324.448 372.947 316.456C374.533 312.673 379.231 301.753 371.848 301.143C368.126 300.838 365.991 304.254 364.405 307.122C362.147 311.27 360.133 315.724 358.303 319.994C355.862 325.607 352.751 330.915 349.639 336.284C345.185 345.252 340.731 354.647 340.121 364.836C339.449 375.634 341.646 386.31 340.487 397.109C338.351 416.571 326.941 433.409 333.653 455.982C340.914 480.263 374.96 486.303 395.705 486.059C407.542 485.876 419.44 483.802 430.484 479.47C461.113 467.391 484.787 440.303 495.342 409.311" stroke="#f6f6f3" stroke-width="2" stroke-miterlimit="10" stroke-linecap="round" stroke-linejoin="round"/>
<path d="M580.275 146.853C583.143 140.63 586.865 128.245 596.322 130.991C602.606 132.821 602.301 142.582 600.47 147.219" stroke="#f6f6f3" stroke-width="2" stroke-miterlimit="10" stroke-linecap="round" stroke-linejoin="round"/>
<path d="M508.522 122.145C513.769 122.145 519.748 120.558 524.934 121.901C530.792 123.487 530.914 128.245 529.083 133.675C527.192 139.227 525.606 144.901 523.897 150.514C523.287 152.405 521.823 155.882 523.287 157.712C524.263 158.933 525.728 159.299 527.131 159.299" stroke="#f6f6f3" stroke-width="2" stroke-miterlimit="10" stroke-linecap="round" stroke-linejoin="round"/>
<path d="M507.85 167.412C520.969 177.113 537.443 173.208 549.951 164.728" stroke="#f6f6f3" stroke-width="2" stroke-miterlimit="10" stroke-linecap="round" stroke-linejoin="round"/>
<path d="M519.809 138.556C517.064 132.516 506.447 131.845 501.261 138.251" stroke="#f6f6f3" stroke-width="2" stroke-miterlimit="10" stroke-linecap="round" stroke-linejoin="round"/>
<path d="M555.32 138.556C552.574 132.516 541.958 131.845 536.771 138.251" stroke="#f6f6f3" stroke-width="2" stroke-miterlimit="10" stroke-linecap="round" stroke-linejoin="round"/>
<path d="M363.916 145.938C372.824 146.06 377.584 145.877 377.95 135.444C378.316 124.036 375.143 110.919 379.292 100.06C383.014 90.3593 393.63 82.1841 403.942 83.3433" stroke="#f6f6f3" stroke-width="2" stroke-miterlimit="10" stroke-linecap="round" stroke-linejoin="round"/>
<path d="M351.164 135.383C360.027 135.383 367.211 127.817 367.211 118.484C367.211 109.151 360.027 101.585 351.164 101.585C342.302 101.585 335.117 109.151 335.117 118.484C335.117 127.817 342.302 135.383 351.164 135.383Z" stroke="#f6f6f3" stroke-width="2" stroke-miterlimit="10" stroke-linecap="round" stroke-linejoin="round"/>
<path d="M400.342 135.383C409.205 135.383 416.389 127.817 416.389 118.484C416.389 109.151 409.205 101.585 400.342 101.585C391.48 101.585 384.295 109.151 384.295 118.484C384.295 127.817 391.48 135.383 400.342 135.383Z" stroke="#f6f6f3" stroke-width="2" stroke-miterlimit="10" stroke-linecap="round" stroke-linejoin="round"/>
<path d="M343.964 157.407C363.855 168.023 389.665 168.816 407.359 153.442" stroke="#f6f6f3" stroke-width="2" stroke-miterlimit="10" stroke-linecap="round" stroke-linejoin="round"/>
<path d="M366.845 117.02C372.947 116.837 379.658 116.288 383.868 116.288" stroke="#f6f6f3" stroke-width="2" stroke-miterlimit="10" stroke-linecap="round" stroke-linejoin="round"/>
<path d="M153.964 123.181C166.716 108.234 173.245 86.0883 166.106 67.0537" stroke="#f6f6f3" stroke-width="2" stroke-miterlimit="10" stroke-linecap="round" stroke-linejoin="round"/>
<path d="M270.747 126.903C272.028 121.962 275.628 119.521 279.106 119.643C282.95 119.765 284.902 124.341 282.645 128.001C281.058 130.564 279.899 131.723 278.496 134.407C276.421 138.312 275.079 142.643 274.286 146.975C273.859 149.171 273.553 151.612 272.394 153.564C270.991 156.004 268.245 156.736 265.866 155.211C263.181 153.503 262.571 150.391 263.486 147.036" stroke="#f6f6f3" stroke-width="2" stroke-miterlimit="10" stroke-linecap="round" stroke-linejoin="round"/>
<path d="M272.272 123.425C258.91 107.868 252.198 84.3799 260.801 64.8572" stroke="#f6f6f3" stroke-width="2" stroke-miterlimit="10" stroke-linecap="round" stroke-linejoin="round"/>
<path d="M166.167 67.0542C174.038 71.9348 182.092 76.8153 191 79.5606C214.308 86.6984 240.544 77.1203 260.557 65.041" stroke="#f6f6f3" stroke-width="2" stroke-miterlimit="10" stroke-linecap="round" stroke-linejoin="round"/>
<path d="M308.149 103.415H311.81C319.864 103.415 326.453 96.8257 326.453 88.6506V73.4595C326.453 69.799 329.382 66.8706 332.982 66.8706H394.668" stroke="#f6f6f3" stroke-width="2" stroke-miterlimit="10" stroke-linecap="round" stroke-linejoin="round"/>
<path d="M442.32 103.415H438.293C430.239 103.415 423.65 96.8257 423.65 88.6506V73.4595C423.65 69.799 420.721 66.8706 417.121 66.8706H355.374" stroke="#f6f6f3" stroke-width="2" stroke-miterlimit="10" stroke-linecap="round" stroke-linejoin="round"/>
<path d="M191.915 118.423C192.825 118.423 193.563 117.658 193.563 116.715C193.563 115.771 192.825 115.007 191.915 115.007C191.006 115.007 190.268 115.771 190.268 116.715C190.268 117.658 191.006 118.423 191.915 118.423Z" fill="#f6f6f3"/>
<path d="M235.602 118.423C236.512 118.423 237.249 117.658 237.249 116.715C237.249 115.771 236.512 115.007 235.602 115.007C234.692 115.007 233.955 115.771 233.955 116.715C233.955 117.658 234.692 118.423 235.602 118.423Z" fill="#f6f6f3"/>
<path d="M196.553 171.5C207.84 175.648 220.165 175.892 230.965 170.768" stroke="#f6f6f3" stroke-width="2" stroke-miterlimit="10" stroke-linecap="round" stroke-linejoin="round"/>
<path d="M173.306 103.659H198.2C205.278 103.659 210.769 110.065 210.037 117.447L207.23 143.925C207.047 145.877 208.45 147.585 210.342 147.585H219.372C221.203 147.585 222.667 145.938 222.484 144.047L220.287 116.288C219.738 109.028 225.169 102.866 232.124 102.866H254.273" stroke="#f6f6f3" stroke-width="2" stroke-miterlimit="10" stroke-linecap="round" stroke-linejoin="round"/>
<path d="M213.271 148.134C220.104 148.012 235.48 150.635 238.714 161.067C239.141 162.532 238.104 163.996 236.578 163.996H190.939C189.414 163.996 188.316 162.532 188.804 161.067C192.099 150.635 207.413 147.951 214.247 148.134" stroke="#f6f6f3" stroke-width="2" stroke-miterlimit="10" stroke-linecap="round" stroke-linejoin="round"/>
<path d="M216.932 195.476H210.586C208.695 195.476 207.23 193.951 207.23 192.121V185.898C207.23 184.007 208.756 182.543 210.586 182.543H216.932C218.823 182.543 220.287 184.068 220.287 185.898V192.121C220.287 194.012 218.762 195.476 216.932 195.476Z" stroke="#f6f6f3" stroke-width="2" stroke-miterlimit="10" stroke-linecap="round" stroke-linejoin="round"/>
<path d="M533.415 389.849H567.828L488.448 249.774L409.067 389.849H505.227" stroke="#9384d1" stroke-width="2" stroke-miterlimit="10" stroke-linecap="round" stroke-linejoin="round"/>
<path d="M389.848 373.804C397.658 389.91 405.65 405.955 414.925 421.268C424.138 436.398 435.182 450.613 449.215 461.412C474.231 480.751 516.82 492.526 542.019 467.208C552.269 456.897 554.954 442.011 551.659 428.162C549.219 417.73 544.703 407.664 539.09 398.573C533.66 389.727 526.826 381.491 523.47 371.486C522.433 368.435 522.189 364.775 520.236 362.09C518.284 359.406 515.477 360.748 513.647 362.822C508.888 368.191 511.694 374.658 512.793 380.759C514.013 387.531 511.511 389.849 504.678 389.849L466.543 389.971C457.33 390.459 421.636 387.958 425.114 402.539C425.48 404.186 427.494 404.796 428.897 404.857C445.615 405.406 459.344 404.857 474.475 405.528C508.888 407.114 536.649 431.701 565.265 448.112C587.353 460.741 619.996 462.937 638.971 441.889C653.981 425.234 652.456 402.661 649.893 382.162C645.195 344.825 629.27 310.172 610.355 278.204C596.2 254.289 578.262 227.628 583.387 198.771C589.061 166.986 611.088 139.593 604.437 105.733C598.274 74.0701 570.696 51.1919 539.09 52.1071C513.708 52.8392 491.804 68.4573 483.2 93.1657C473.194 121.84 484.726 162.166 495.281 188.583C499.125 198.222 502.542 209.692 499.43 220.002C497.234 227.14 491.803 232.875 485.58 236.535" stroke="#f6f6f3" stroke-width="2" stroke-miterlimit="10" stroke-linecap="round" stroke-linejoin="round"/>
</svg>
