<svg xmlns="http://www.w3.org/2000/svg" width="34" height="33" viewBox="0 0 34 33" fill="none" class="w-4 h-5"><g clip-path="url(#clip0_455_2423)"><path d="M11.3702 0.143188L21.5959 0.157755L29.9434 6.1474L33.0896 16.0143L30.052 25.9161L21.7708 31.9996L11.546 32.1298L3.28179 26.0225L0 16.201L3.17349 6.34317L11.3702 0.143188Z" fill="#00CD66"/> <mask id="mask0_455_2423" maskUnits="userSpaceOnUse" x="0" y="0" width="34" height="32" style="mask-type: alpha;"><path d="M11.4797 0L21.8038 0.0145018L30.2317 5.97765L33.4081 15.8009L30.3413 25.659L21.9804 31.7155L11.6572 31.8451L3.31338 25.7648L0 15.9868L3.20404 6.17256L11.4797 0Z" fill="#00CD66"/></mask> <g mask="url(#mask0_455_2423)"><g filter="url(#filter0_d_455_2423)"><path d="M6.89355 9.30493V33.581H26.2752V14.8965L22.4236 9.30493H6.89355Z" fill="#FFDE00"/> <path d="M26.2751 14.8965L22.4235 9.30493V14.8965H26.2751Z" fill="#FEF9F2"/> <path d="M23.7739 17.3157C23.2909 17.3157 23.0424 17.1341 22.8228 16.974C22.6311 16.8339 22.4794 16.7234 22.1511 16.7234C21.8228 16.7234 21.6711 16.8339 21.4794 16.974C21.2601 17.1341 21.0113 17.3157 20.5284 17.3157C20.0454 17.3157 19.7969 17.1341 19.5773 16.974C19.3856 16.8339 19.2342 16.7234 18.9056 16.7234C18.577 16.7234 18.4256 16.8339 18.2339 16.974C18.0146 17.1341 17.7657 17.3157 17.2828 17.3157C16.7999 17.3157 16.5514 17.1341 16.3318 16.974C16.1401 16.8339 15.9887 16.7234 15.6601 16.7234C15.3315 16.7234 15.1804 16.8339 14.9884 16.974C14.7691 17.1341 14.5202 17.3157 14.0373 17.3157C13.5544 17.3157 13.3059 17.1341 13.0863 16.974C12.8946 16.8339 12.7432 16.7234 12.4146 16.7234C12.086 16.7234 11.9349 16.8339 11.7429 16.974C11.5236 17.1341 11.2747 17.3157 10.7918 17.3157C10.3089 17.3157 10.0604 17.1341 9.8408 16.974C9.64908 16.8339 9.49768 16.7234 9.16907 16.7234V16.2498C9.65198 16.2498 9.90054 16.4314 10.1201 16.5915C10.3118 16.7316 10.4632 16.8421 10.7918 16.8421C11.1204 16.8421 11.2715 16.7316 11.4635 16.5915C11.6828 16.4314 11.9317 16.2498 12.4146 16.2498C12.8975 16.2498 13.146 16.4314 13.3656 16.5915C13.5573 16.7316 13.7087 16.8421 14.0373 16.8421C14.3659 16.8421 14.5171 16.7316 14.7091 16.5915C14.9283 16.4314 15.1772 16.2498 15.6601 16.2498C16.143 16.2498 16.3916 16.4314 16.6111 16.5915C16.8028 16.7316 16.9542 16.8421 17.2828 16.8421C17.6115 16.8421 17.7629 16.7316 17.9546 16.5915C18.1738 16.4314 18.4227 16.2498 18.9056 16.2498C19.3885 16.2498 19.6371 16.4314 19.8566 16.5915C20.0483 16.7316 20.1997 16.8421 20.5284 16.8421C20.857 16.8421 21.0084 16.7316 21.2001 16.5915C21.4193 16.4314 21.6682 16.2498 22.1511 16.2498C22.634 16.2498 22.8826 16.4314 23.1021 16.5915C23.2939 16.7316 23.4455 16.8421 23.7739 16.8421V17.3157Z" fill="#183B1B"/> <path d="M23.7739 20.9635C23.2909 20.9635 23.0424 20.782 22.8228 20.6219C22.6311 20.4818 22.4794 20.3713 22.1511 20.3713C21.8228 20.3713 21.6711 20.4818 21.4794 20.6219C21.2601 20.782 21.0113 20.9635 20.5284 20.9635C20.0454 20.9635 19.7969 20.782 19.5773 20.6219C19.3856 20.4818 19.2342 20.3713 18.9056 20.3713C18.577 20.3713 18.4256 20.4818 18.2339 20.6219C18.0146 20.782 17.7657 20.9635 17.2828 20.9635C16.7999 20.9635 16.5514 20.782 16.3318 20.6219C16.1401 20.4818 15.9887 20.3713 15.6601 20.3713C15.3315 20.3713 15.1804 20.4818 14.9884 20.6219C14.7691 20.782 14.5202 20.9635 14.0373 20.9635C13.5544 20.9635 13.3059 20.782 13.0863 20.6219C12.8946 20.4818 12.7432 20.3713 12.4146 20.3713C12.086 20.3713 11.9349 20.4818 11.7429 20.6219C11.5236 20.782 11.2747 20.9635 10.7918 20.9635C10.3089 20.9635 10.0604 20.782 9.8408 20.6219C9.64908 20.4818 9.49768 20.3713 9.16907 20.3713V19.8976C9.65198 19.8976 9.90054 20.0792 10.1201 20.2393C10.3118 20.3794 10.4632 20.4899 10.7918 20.4899C11.1204 20.4899 11.2715 20.3794 11.4635 20.2393C11.6828 20.0792 11.9317 19.8976 12.4146 19.8976C12.8975 19.8976 13.146 20.0792 13.3656 20.2393C13.5573 20.3794 13.7087 20.4899 14.0373 20.4899C14.3659 20.4899 14.5171 20.3794 14.7091 20.2393C14.9283 20.0792 15.1772 19.8976 15.6601 19.8976C16.143 19.8976 16.3916 20.0792 16.6111 20.2393C16.8028 20.3794 16.9542 20.4899 17.2828 20.4899C17.6115 20.4899 17.7629 20.3794 17.9546 20.2393C18.1738 20.0792 18.4227 19.8976 18.9056 19.8976C19.3885 19.8976 19.6371 20.0792 19.8566 20.2393C20.0483 20.3794 20.1997 20.4899 20.5284 20.4899C20.857 20.4899 21.0084 20.3794 21.2001 20.2393C21.4193 20.0792 21.6682 19.8976 22.1511 19.8976C22.634 19.8976 22.8826 20.0792 23.1021 20.2393C23.2939 20.3794 23.4455 20.4899 23.7739 20.4899V20.9635Z" fill="#183B1B"/> <path d="M23.7739 24.6113C23.2909 24.6113 23.0424 24.4297 22.8228 24.2696C22.6311 24.1295 22.4794 24.019 22.1511 24.019C21.8228 24.019 21.6711 24.1295 21.4794 24.2696C21.2601 24.4297 21.0113 24.6113 20.5284 24.6113C20.0454 24.6113 19.7969 24.4297 19.5773 24.2696C19.3856 24.1295 19.2342 24.019 18.9056 24.019C18.577 24.019 18.4256 24.1295 18.2339 24.2696C18.0146 24.4297 17.7657 24.6113 17.2828 24.6113C16.7999 24.6113 16.5514 24.4297 16.3318 24.2696C16.1401 24.1295 15.9887 24.019 15.6601 24.019C15.3315 24.019 15.1804 24.1295 14.9884 24.2696C14.7691 24.4297 14.5202 24.6113 14.0373 24.6113C13.5544 24.6113 13.3059 24.4297 13.0863 24.2696C12.8946 24.1295 12.7432 24.019 12.4146 24.019C12.086 24.019 11.9349 24.1295 11.7429 24.2696C11.5236 24.4297 11.2747 24.6113 10.7918 24.6113C10.3089 24.6113 10.0604 24.4297 9.8408 24.2696C9.64908 24.1295 9.49768 24.019 9.16907 24.019V23.5454C9.65198 23.5454 9.90054 23.727 10.1201 23.8871C10.3118 24.0272 10.4632 24.1377 10.7918 24.1377C11.1204 24.1377 11.2715 24.0272 11.4635 23.8871C11.6828 23.727 11.9317 23.5454 12.4146 23.5454C12.8975 23.5454 13.146 23.727 13.3656 23.8871C13.5573 24.0272 13.7087 24.1377 14.0373 24.1377C14.3659 24.1377 14.5171 24.0272 14.7091 23.8871C14.9283 23.727 15.1772 23.5454 15.6601 23.5454C16.143 23.5454 16.3916 23.727 16.6111 23.8871C16.8028 24.0272 16.9542 24.1377 17.2828 24.1377C17.6115 24.1377 17.7629 24.0272 17.9546 23.8871C18.1738 23.727 18.4227 23.5454 18.9056 23.5454C19.3885 23.5454 19.6371 23.727 19.8566 23.8871C20.0483 24.0272 20.1997 24.1377 20.5284 24.1377C20.857 24.1377 21.0084 24.0272 21.2001 23.8871C21.4193 23.727 21.6682 23.5454 22.1511 23.5454C22.634 23.5454 22.8826 23.727 23.1021 23.8871C23.2939 24.0272 23.4455 24.1377 23.7739 24.1377V24.6113Z" fill="#183B1B"/> <path d="M23.7739 28.2588C23.2909 28.2588 23.0424 28.0773 22.8228 27.9172C22.6311 27.7771 22.4794 27.6666 22.1511 27.6666C21.8228 27.6666 21.6711 27.7771 21.4794 27.9172C21.2601 28.0773 21.0113 28.2588 20.5284 28.2588C20.0454 28.2588 19.7969 28.0773 19.5773 27.9172C19.3856 27.7771 19.2342 27.6666 18.9056 27.6666C18.577 27.6666 18.4256 27.7771 18.2339 27.9172C18.0146 28.0773 17.7657 28.2588 17.2828 28.2588C16.7999 28.2588 16.5514 28.0773 16.3318 27.9172C16.1401 27.7771 15.9887 27.6666 15.6601 27.6666C15.3315 27.6666 15.1804 27.7771 14.9884 27.9172C14.7691 28.0773 14.5202 28.2588 14.0373 28.2588C13.5544 28.2588 13.3059 28.0773 13.0863 27.9172C12.8946 27.7771 12.7432 27.6666 12.4146 27.6666C12.086 27.6666 11.9349 27.7771 11.7429 27.9172C11.5236 28.0773 11.2747 28.2588 10.7918 28.2588C10.3089 28.2588 10.0604 28.0773 9.8408 27.9172C9.64908 27.7771 9.49768 27.6666 9.16907 27.6666V27.1929C9.65198 27.1929 9.90054 27.3745 10.1201 27.5346C10.3118 27.6747 10.4632 27.7852 10.7918 27.7852C11.1204 27.7852 11.2715 27.6747 11.4635 27.5346C11.6828 27.3745 11.9317 27.1929 12.4146 27.1929C12.8975 27.1929 13.146 27.3745 13.3656 27.5346C13.5573 27.6747 13.7087 27.7852 14.0373 27.7852C14.3659 27.7852 14.5171 27.6747 14.7091 27.5346C14.9283 27.3745 15.1772 27.1929 15.6601 27.1929C16.143 27.1929 16.3916 27.3745 16.6111 27.5346C16.8028 27.6747 16.9542 27.7852 17.2828 27.7852C17.6115 27.7852 17.7629 27.6747 17.9546 27.5346C18.1738 27.3745 18.4227 27.1929 18.9056 27.1929C19.3885 27.1929 19.6371 27.3745 19.8566 27.5346C20.0483 27.6747 20.1997 27.7852 20.5284 27.7852C20.857 27.7852 21.0084 27.6747 21.2001 27.5346C21.4193 27.3745 21.6682 27.1929 22.1511 27.1929C22.634 27.1929 22.8826 27.3745 23.1021 27.5346C23.2939 27.6747 23.4455 27.7852 23.7739 27.7852V28.2588Z" fill="#183B1B"/> <g filter="url(#filter1_d_455_2423)"><path d="M24.7641 24.7647C26.7528 24.7647 28.3649 23.1525 28.3649 21.1639C28.3649 19.1752 26.7528 17.563 24.7641 17.563C22.7755 17.563 21.1633 19.1752 21.1633 21.1639C21.1633 23.1525 22.7755 24.7647 24.7641 24.7647Z" fill="url(#paint0_linear_455_2423)"/></g> <g filter="url(#filter2_d_455_2423)"><path d="M24.4422 22.3454L23.3871 21.1627L23.8303 20.7676L24.4901 21.5072L26.6297 19.5985L27.0247 20.0417L24.4422 22.3454Z" fill="#FEF9F2"/></g></g></g></g> <defs><filter id="filter0_d_455_2423" x="-8.10645" y="4.30493" width="41.4714" height="44.2761" filterUnits="userSpaceOnUse" color-interpolation-filters="sRGB"><feFlood flood-opacity="0" result="BackgroundImageFix"/> <feColorMatrix in="SourceAlpha" type="matrix" values="0 0 0 0 0 0 0 0 0 0 0 0 0 0 0 0 0 0 127 0" result="hardAlpha"/> <feOffset dx="-5" dy="5"/> <feGaussianBlur stdDeviation="5"/> <feColorMatrix type="matrix" values="0 0 0 0 0.117647 0 0 0 0 0.0156863 0 0 0 0 0.176471 0 0 0 0.25 0"/> <feBlend mode="normal" in2="BackgroundImageFix" result="effect1_dropShadow_455_2423"/> <feBlend mode="normal" in="SourceGraphic" in2="effect1_dropShadow_455_2423" result="shape"/></filter> <filter id="filter1_d_455_2423" x="0.73333" y="10.753" width="34.4416" height="34.4416" filterUnits="userSpaceOnUse" color-interpolation-filters="sRGB"><feFlood flood-opacity="0" result="BackgroundImageFix"/> <feColorMatrix in="SourceAlpha" type="matrix" values="0 0 0 0 0 0 0 0 0 0 0 0 0 0 0 0 0 0 127 0" result="hardAlpha"/> <feOffset dx="-6.81" dy="6.81"/> <feGaussianBlur stdDeviation="6.81"/> <feColorMatrix type="matrix" values="0 0 0 0 0.117647 0 0 0 0 0.0156863 0 0 0 0 0.176471 0 0 0 0.25 0"/> <feBlend mode="normal" in2="BackgroundImageFix" result="effect1_dropShadow_455_2423"/> <feBlend mode="normal" in="SourceGraphic" in2="effect1_dropShadow_455_2423" result="shape"/></filter> <filter id="filter2_d_455_2423" x="2.95709" y="12.7885" width="30.8776" height="29.9869" filterUnits="userSpaceOnUse" color-interpolation-filters="sRGB"><feFlood flood-opacity="0" result="BackgroundImageFix"/> <feColorMatrix in="SourceAlpha" type="matrix" values="0 0 0 0 0 0 0 0 0 0 0 0 0 0 0 0 0 0 127 0" result="hardAlpha"/> <feOffset dx="-6.81" dy="6.81"/> <feGaussianBlur stdDeviation="6.81"/> <feColorMatrix type="matrix" values="0 0 0 0 0.117647 0 0 0 0 0.0156863 0 0 0 0 0.176471 0 0 0 0.25 0"/> <feBlend mode="normal" in2="BackgroundImageFix" result="effect1_dropShadow_455_2423"/> <feBlend mode="normal" in="SourceGraphic" in2="effect1_dropShadow_455_2423" result="shape"/></filter> <linearGradient id="paint0_linear_455_2423" x1="21.1633" y1="21.1639" x2="28.3646" y2="21.1639" gradientUnits="userSpaceOnUse"><stop stop-color="#FF4F59"/> <stop offset="0.51" stop-color="#FF505A"/> <stop offset="0.69" stop-color="#FF5761"/> <stop offset="0.82" stop-color="#FF626D"/> <stop offset="0.93" stop-color="#FF727E"/> <stop offset="1" stop-color="#FF838F"/></linearGradient> <clipPath id="clip0_455_2423"><rect width="33.4081" height="32.1298" fill="white"/></clipPath></defs></svg>