<svg width="38" height="39" viewBox="0 0 38 39" fill="none" xmlns="http://www.w3.org/2000/svg">
<path d="M20.5359 1.18076L20.7743 1.61315C21.3141 2.59319 22.6214 2.82369 23.4639 2.08749L23.8359 1.76251C24.8759 0.853422 26.5098 1.44811 26.7223 2.81311L26.7984 3.30116C26.9704 4.40665 28.1202 5.07033 29.1638 4.66695L29.6244 4.48897C30.9126 3.99072 32.2446 5.10836 31.9773 6.46356L31.8816 6.94808C31.6652 8.04572 32.5186 9.06262 33.6371 9.04027L34.1306 9.03047C35.5117 9.00264 36.3808 10.5084 35.6665 11.6907L35.4109 12.1133C34.8323 13.071 35.2863 14.3184 36.3451 14.6798L36.8124 14.8393C38.1197 15.2859 38.4216 16.9978 37.3459 17.8645L36.9613 18.1742C36.0899 18.8759 36.0899 20.2037 36.9613 20.9054L37.3459 21.2151C38.4216 22.0814 38.1197 23.7938 36.8124 24.2403L36.3451 24.3998C35.2863 24.7612 34.8323 26.0086 35.4109 26.9663L35.6665 27.3889C36.3812 28.5712 35.5117 30.077 34.1306 30.0491L33.6371 30.0393C32.5182 30.017 31.6652 31.0339 31.8816 32.1315L31.9773 32.6161C32.2442 33.9712 30.9126 35.0889 29.6244 34.5906L29.1638 34.4127C28.1202 34.0089 26.9708 34.6726 26.7984 35.7784L26.7223 36.2665C26.5098 37.6315 24.8759 38.2258 23.8359 37.3171L23.4639 36.9921C22.6214 36.2559 21.3141 36.4864 20.7743 37.4665L20.5359 37.8988C19.8695 39.1086 18.1309 39.1086 17.4641 37.8988L17.2257 37.4665C16.6859 36.4864 15.3786 36.2559 14.5361 36.9921L14.1641 37.3171C13.1241 38.2262 11.4902 37.6315 11.2777 36.2665L11.2016 35.7784C11.0295 34.673 9.87977 34.0093 8.83623 34.4127L8.37561 34.5906C7.08745 35.0889 5.75538 33.9712 6.02273 32.6161L6.11839 32.1315C6.33478 31.0339 5.48136 30.017 4.36294 30.0393L3.8694 30.0491C2.48833 30.077 1.61923 28.5712 2.33348 27.3889L2.58908 26.9663C3.16769 26.0086 2.71374 24.7612 1.65491 24.3998L1.18762 24.2403C-0.119748 23.7938 -0.421599 22.0818 0.65409 21.2151L1.03865 20.9054C1.9101 20.2037 1.9101 18.8759 1.03865 18.1742L0.65409 17.8645C-0.421599 16.9982 -0.119748 15.2859 1.18762 14.8393L1.65491 14.6798C2.71374 14.3184 3.16769 13.071 2.58908 12.1133L2.33348 11.6907C1.61884 10.5084 2.48833 9.00264 3.8694 9.03047L4.36294 9.04027C5.48175 9.06262 6.33478 8.04572 6.11839 6.94808L6.02273 6.46356C5.75577 5.10836 7.08745 3.99072 8.37561 4.48897L8.83623 4.66695C9.87977 5.07072 11.0292 4.40704 11.2016 3.30116L11.2777 2.81311C11.4902 1.44811 13.1241 0.853814 14.1641 1.76251L14.5361 2.08749C15.3786 2.82369 16.6859 2.59319 17.2257 1.61315L17.4641 1.18076C18.1305 -0.0290021 19.8691 -0.0290021 20.5359 1.18076Z" fill="#00CE66"/>
<mask id="mask0_1642_28695" style="mask-type:alpha" maskUnits="userSpaceOnUse" x="0" y="0" width="38" height="39">
<path d="M20.5359 1.18076L20.7743 1.61315C21.3141 2.59319 22.6214 2.82369 23.4639 2.08749L23.8359 1.76251C24.8759 0.853422 26.5098 1.44811 26.7223 2.81311L26.7984 3.30116C26.9704 4.40665 28.1202 5.07033 29.1638 4.66695L29.6244 4.48897C30.9126 3.99072 32.2446 5.10836 31.9773 6.46356L31.8816 6.94808C31.6652 8.04572 32.5186 9.06262 33.6371 9.04027L34.1306 9.03047C35.5117 9.00264 36.3808 10.5084 35.6665 11.6907L35.4109 12.1133C34.8323 13.071 35.2863 14.3184 36.3451 14.6798L36.8124 14.8393C38.1197 15.2859 38.4216 16.9978 37.3459 17.8645L36.9613 18.1742C36.0899 18.8759 36.0899 20.2037 36.9613 20.9054L37.3459 21.2151C38.4216 22.0814 38.1197 23.7938 36.8124 24.2403L36.3451 24.3998C35.2863 24.7612 34.8323 26.0086 35.4109 26.9663L35.6665 27.3889C36.3812 28.5712 35.5117 30.077 34.1306 30.0491L33.6371 30.0393C32.5182 30.017 31.6652 31.0339 31.8816 32.1315L31.9773 32.6161C32.2442 33.9712 30.9126 35.0889 29.6244 34.5906L29.1638 34.4127C28.1202 34.0089 26.9708 34.6726 26.7984 35.7784L26.7223 36.2665C26.5098 37.6315 24.8759 38.2258 23.8359 37.3171L23.4639 36.9921C22.6214 36.2559 21.3141 36.4864 20.7743 37.4665L20.5359 37.8988C19.8695 39.1086 18.1309 39.1086 17.4641 37.8988L17.2257 37.4665C16.6859 36.4864 15.3786 36.2559 14.5361 36.9921L14.1641 37.3171C13.1241 38.2262 11.4902 37.6315 11.2777 36.2665L11.2016 35.7784C11.0295 34.673 9.87977 34.0093 8.83623 34.4127L8.37561 34.5906C7.08745 35.0889 5.75538 33.9712 6.02273 32.6161L6.11839 32.1315C6.33478 31.0339 5.48136 30.017 4.36294 30.0393L3.8694 30.0491C2.48833 30.077 1.61923 28.5712 2.33348 27.3889L2.58908 26.9663C3.16769 26.0086 2.71374 24.7612 1.65491 24.3998L1.18762 24.2403C-0.119748 23.7938 -0.421599 22.0818 0.65409 21.2151L1.03865 20.9054C1.9101 20.2037 1.9101 18.8759 1.03865 18.1742L0.65409 17.8645C-0.421599 16.9982 -0.119748 15.2859 1.18762 14.8393L1.65491 14.6798C2.71374 14.3184 3.16769 13.071 2.58908 12.1133L2.33348 11.6907C1.61884 10.5084 2.48833 9.00264 3.8694 9.03047L4.36294 9.04027C5.48175 9.06262 6.33478 8.04572 6.11839 6.94808L6.02273 6.46356C5.75577 5.10836 7.08745 3.99072 8.37561 4.48897L8.83623 4.66695C9.87977 5.07072 11.0292 4.40704 11.2016 3.30116L11.2777 2.81311C11.4902 1.44811 13.1241 0.853814 14.1641 1.76251L14.5361 2.08749C15.3786 2.82369 16.6859 2.59319 17.2257 1.61315L17.4641 1.18076C18.1305 -0.0290021 19.8691 -0.0290021 20.5359 1.18076Z" fill="#00CE66"/>
</mask>
<g mask="url(#mask0_1642_28695)">
<path d="M10.4873 21.0269H6.70752V35.1323H10.4873V21.0269Z" fill="#FFDE00"/>
<path d="M7.74017 22.9717H7.45557V33.188H7.74017V22.9717Z" fill="#00CE66"/>
<path d="M8.73993 22.9717H8.45532V33.188H8.73993V22.9717Z" fill="#00CE66"/>
<path d="M9.73944 22.9717H9.45483V33.188H9.73944V22.9717Z" fill="#00CE66"/>
<path d="M11.2722 21.0269H5.9314V22.4236H11.2722V21.0269Z" fill="#FFDE00"/>
<path d="M17.6363 21.0269H13.8564V35.1323H17.6363V21.0269Z" fill="#FFDE00"/>
<path d="M14.8889 22.9717H14.6042V33.188H14.8889V22.9717Z" fill="#00CE66"/>
<path d="M15.8884 22.9717H15.6038V33.188H15.8884V22.9717Z" fill="#00CE66"/>
<path d="M16.8879 22.9717H16.6033V33.188H16.8879V22.9717Z" fill="#00CE66"/>
<path d="M18.4206 21.0269H13.0798V22.4236H18.4206V21.0269Z" fill="#FFDE00"/>
<path d="M24.7844 21.0269H21.0046V35.1323H24.7844V21.0269Z" fill="#FFDE00"/>
<path d="M22.0373 22.9717H21.7527V33.188H22.0373V22.9717Z" fill="#00CE66"/>
<path d="M23.0366 22.9717H22.752V33.188H23.0366V22.9717Z" fill="#00CE66"/>
<path d="M24.0368 22.9717H23.7522V33.188H24.0368V22.9717Z" fill="#00CE66"/>
<path d="M25.5693 21.0269H20.2285V22.4236H25.5693V21.0269Z" fill="#FFDE00"/>
<path d="M31.9334 21.0269H28.1536V35.1323H31.9334V21.0269Z" fill="#FFDE00"/>
<path d="M29.1862 22.9717H28.9016V33.188H29.1862V22.9717Z" fill="#00CE66"/>
<path d="M30.186 22.9717H29.9014V33.188H30.186V22.9717Z" fill="#00CE66"/>
<path d="M31.1857 22.9717H30.9011V33.188H31.1857V22.9717Z" fill="#00CE66"/>
<path d="M32.7183 21.0269H27.3774V22.4236H32.7183V21.0269Z" fill="#FFDE00"/>
<path fill-rule="evenodd" clip-rule="evenodd" d="M19.3245 6.52002L2.56079 21.1151H36.0879L19.3241 6.52002H19.3245ZM19.3245 18.5953C17.9329 18.5953 16.8047 17.467 16.8047 16.0754C16.8047 14.6837 17.9329 13.5555 19.3245 13.5555C20.7162 13.5555 21.8444 14.6837 21.8444 16.0754C21.8444 17.467 20.7162 18.5953 19.3245 18.5953Z" fill="url(#paint0_linear_1642_28695)"/>
<path d="M34.3722 36.064H4.27759V37.4607H34.3722V36.064Z" fill="#FFDE00"/>
<path d="M36.2408 37.374H2.40869V38.9444H36.2408V37.374Z" fill="#FFDE00"/>
<path d="M11.2722 34.667H5.9314V36.0637H11.2722V34.667Z" fill="#FFDE00"/>
<path d="M18.4206 34.667H13.0798V36.0637H18.4206V34.667Z" fill="#FFDE00"/>
<path d="M25.5693 34.667H20.2285V36.0637H25.5693V34.667Z" fill="#FFDE00"/>
<path d="M32.7183 34.667H27.3774V36.0637H32.7183V34.667Z" fill="#FFDE00"/>
</g>
<defs>
<linearGradient id="paint0_linear_1642_28695" x1="15.1339" y1="28.3741" x2="25.6446" y2="10.1689" gradientUnits="userSpaceOnUse">
<stop offset="0.56" stop-color="#FFDE00"/>
<stop offset="0.92" stop-color="#FFFAF3"/>
</linearGradient>
</defs>
</svg>
