<?xml version="1.0" encoding="utf-8"?>
<!-- Generator: Adobe Illustrator 25.0.0, SVG Export Plug-In . SVG Version: 6.00 Build 0)  -->
<svg version="1.1" id="Layer_1" xmlns="http://www.w3.org/2000/svg" xmlns:xlink="http://www.w3.org/1999/xlink" x="0px" y="0px"
	 viewBox="0 0 584.9 583.9" style="enable-background:new 0 0 584.9 583.9;" xml:space="preserve">
<style type="text/css">
	.st0{clip-path:url(#SVGID_2_);fill-rule:evenodd;clip-rule:evenodd;fill:#304CA0;}
	.st1{clip-path:url(#SVGID_2_);fill:#304CA0;}
	.st2{clip-path:url(#SVGID_2_);fill-rule:evenodd;clip-rule:evenodd;fill:#ED1C24;}
	.st3{clip-path:url(#SVGID_2_);fill-rule:evenodd;clip-rule:evenodd;fill:#FFCB05;}
	.st4{clip-path:url(#SVGID_2_);fill-rule:evenodd;clip-rule:evenodd;fill:#00A651;}
</style>
<g>
	<g>
		<defs>
			<rect id="SVGID_1_" x="-4.4" y="-5.7" width="595.3" height="595.3"/>
		</defs>
		<clipPath id="SVGID_2_">
			<use xlink:href="#SVGID_1_"  style="overflow:visible;"/>
		</clipPath>
		<path class="st0" d="M287.6,583.5c18.3,0,34.2-0.7,51.6-3.6c2.7-0.4,5.1-0.8,7.7-1.3c4.9-1,9.7-2,14.7-3.1
			c2.5-0.6,4.6-1.1,6.9-1.8c11.4-3.2,22.5-6.8,33.5-11.2c11.4-4.6,22.7-9.7,33.2-16c1-0.6,1.9-1.1,2.9-1.6
			c6.5-3.5,15.7-9.3,21.8-13.8l15.2-11.4c1.8-1.4,3.2-2.7,5-4.1l18.8-17.1l14.9-16.2c0.5-0.6,0.4-0.6,0.9-1.2
			c3.8-4.3,7.4-8.9,10.9-13.5l3.8-5.2c4.5-6,8.3-12.4,12.4-18.7c3.5-5.5,6.7-11.3,9.7-17.1l5.9-12.2c5.3-10.6,11.5-27.3,14.6-38.8
			c1.3-4.5,2.6-9.3,3.8-14c2.9-11.7,5.2-25.1,6.6-37.7c0.3-2.9,0.4-5.4,0.7-8.3c2.4-23.1,0.2-56.3-4.3-78.8
			c-3.6-18.1-8.6-35.4-15.4-52.5c-8.7-21.7-19.9-42.5-33.6-61.4c-4.8-6.7-10.6-14.7-16.2-20.6c-3.9-4.1-7.3-8.6-11.3-12.5
			l-21.1-19.6c-6.2-5.2-12.5-10.3-19.1-15l-8-5.6c-11.3-7.3-22.6-13.7-34.6-19.7c-6.1-3.1-12.3-5.7-18.6-8.2l-14.7-5.5
			c-1.7-0.6-3.4-1-5.3-1.7c-17.3-5.8-37.7-10.1-56-11.9c-8.4-0.8-16.4-1.5-25.6-1.5c-2.1,0-3.8-0.3-6.3-0.3l-32.2,1.9
			c-11.4,1.3-23.9,3.3-34.8,6c-18.1,4.4-34.6,9.5-50.8,17.1C149,38,133.3,47.4,110.1,65.5c-0.8,0.7-1.2,1.1-2,1.6L91.8,81.4
			c-2.3,2.1-8.3,7.9-10.1,10.1l-8,8.9c-0.7,0.8-0.9,1.1-1.5,1.8l-4.7,5.6c-6.3,7.4-11.9,15.3-17.3,23.4c-0.9,1.4-1.6,2.6-2.6,4
			c-10.1,15.1-18.5,32.2-25.4,49.4c-2.7,6.7-4.8,13.3-7.1,20.1C11,216.9,8,229.8,5.9,242.6c-0.3,2.1-0.6,4.1-0.9,6
			c-1,5.8-1.9,12.1-2.2,18l-0.8,12.8c-0.5,3.4-0.1,15.8-0.1,19.8c0,4.7,0.3,8.8,0.6,13c0.3,4.5,0.5,8.2,1.1,12.5
			c2.1,15.5,4.6,30.7,8.8,45.5c5.1,17.8,10.7,33.3,18.5,49.1c1.4,2.9,3,6.3,4.5,9c1.7,2.9,3.2,5.9,4.8,8.8
			c5.7,9.9,12,19.5,18.8,28.6c1.1,1.4,1.9,2.6,3,4c7.6,10.2,16.4,19.9,25.4,28.9c3.9,3.9,8,7.8,12.2,11.3c0.7,0.6,1.1,1.2,1.9,1.8
			c2.6,2,4.8,4.1,7.4,6.2c5.1,4.1,10,8,15.4,11.7l22.6,14.5c6.5,3.9,13.1,7.4,20.1,10.7c0.9,0.4,1.4,0.6,2.3,1
			C204.5,572.9,248.4,583.5,287.6,583.5 M293,575.9c-3.2,0-5.5-0.3-8.4-0.3c-1.4,0-2.9,0.1-4.2,0c-5.8-0.2-14.9-1-20.6-1.7
			c-5.4-0.7-10.2-1.4-15.3-2.2c-9.9-1.6-19.3-3.8-28.8-6.5c-4.8-1.4-9-2.7-13.6-4.2c-6.5-2.2-13-4.7-19.2-7.3
			c-2.1-0.9-4.3-1.8-6.3-2.8l-6-2.8c-3.9-1.6-7.8-3.9-11.6-5.9c-6.7-3.4-13.1-7.7-19.5-11.6c-4.6-2.7-8.9-6-13.3-9.1
			c-5.1-3.6-10.1-7.7-14.9-11.7c-4.9-4.1-17.1-14.9-20.8-19l-4.2-4.5c-3-2.9-5.7-6.2-8.4-9.4c-6.8-7.7-13.5-16.4-19.1-24.9
			c-4.2-6.3-8.3-12.5-12-19.1c-3.8-6.8-7.3-13.5-10.6-20.5l-4.1-9.1c-19.3-44-26.7-96.9-20.6-144.6c1-8,2-15,3.6-22.7
			c1.5-7.3,3.1-14.3,5.1-21.4c5.1-17.5,11.8-34.4,19.9-50.7c3.9-7.7,8.3-15.2,12.8-22.5c0.6-1,1-1.6,1.6-2.6c0.7-1,1.1-1.8,1.7-2.8
			c5.7-8.9,12.5-17.1,19-25.4c0.6-0.8,1.2-1.5,1.9-2.3c6.1-7.2,12.6-13.9,19.3-20.5l12.7-11.4c10.1-8.5,20.7-16.2,31.8-23.4
			L163.3,40c2-1,3.8-1.9,5.8-2.9c1.1-0.6,1.9-1,3-1.5l9.2-4.1c6.3-2.7,12.7-5.3,19.1-7.4c47.8-16,92.8-19.2,142.8-11
			c7.6,1.2,14.6,2.8,21.8,4.8c2.4,0.7,4.7,1.3,6.9,1.9c2.4,0.7,4.4,1.4,6.7,2.1c8.9,2.5,17.3,6,25.8,9.5c6.1,2.5,12.1,5.5,18,8.5
			c15.3,7.6,29.7,17,43.3,27.4c4.2,3.2,12.9,10,17,14.1l6.9,6.4c2.4,1.9,4.5,4.4,6.7,6.6l10.6,11.5c0.5,0.6,0.5,0.6,0.9,1.2
			c3.8,4.4,7.5,8.8,11,13.5l12.7,18.1l17.5,31.1c4,7.8,7.6,16.5,10.5,24.8c2.3,6.7,4.6,13.1,6.5,20c9.4,33.7,13.7,74.5,8.8,111.1
			c-3.4,25.3-8.5,47.6-17.8,70.9c-2.8,7-5.5,12.4-8.1,18.5c-0.8,2-2,4-2.9,5.9l-6.2,11.6c-0.5,1-1.1,1.8-1.6,2.6l-6.8,11
			c-6.7,10.2-13.1,18.7-20.7,28.1c-4,4.9-8.1,9.6-12.6,14l-8.9,8.9c-3.6,3.6-7.6,7.4-11.5,10.5c-6.7,5.2-13,10.8-20,15.6
			c-6.1,4.2-12.2,8.4-18.6,12.2c-4.7,2.8-9.4,5.6-14.3,8l-8.8,4.4c-12.3,5.5-16.9,8.1-31.4,12.9c-4.5,1.5-9,2.9-13.6,4.2
			c-13.3,3.9-38.4,8.9-52.2,9.7c-5.8,0.3-10.9,0.9-16.9,0.9C298.6,575.6,296.4,575.9,293,575.9z"/>
		<path class="st0" d="M288.9,515.9c14,0,26.2-0.5,39.6-2.7c2-0.3,3.9-0.6,5.9-1c3.7-0.8,7.5-1.5,11.3-2.4c1.9-0.4,3.5-0.9,5.3-1.4
			c8.7-2.5,17.3-5.2,25.7-8.6c8.7-3.5,17.4-7.5,25.5-12.2c0.8-0.5,1.5-0.9,2.2-1.3c5-2.7,12-7.2,16.7-10.6l11.6-8.7
			c1.4-1.1,2.5-2.1,3.8-3.1l14.5-13.1l11.5-12.4c0.4-0.4,0.3-0.5,0.7-0.9c2.9-3.3,5.7-6.9,8.4-10.4l2.9-4c3.4-4.6,6.4-9.5,9.5-14.3
			c2.7-4.2,5.1-8.7,7.5-13.2l4.6-9.3c4.1-8.1,8.8-21,11.2-29.8c1-3.5,2-7.1,2.9-10.8c2.3-9,4-19.3,5.1-28.9c0.2-2.2,0.3-4.1,0.5-6.4
			c1.9-17.7,0.2-43.2-3.3-60.5c-2.8-13.9-6.6-27.2-11.8-40.3c-6.7-16.7-15.3-32.6-25.8-47.2c-3.7-5.1-8.1-11.3-12.4-15.8
			c-3-3.1-5.6-6.6-8.7-9.6l-16.2-15.1c-4.7-4-9.6-7.9-14.7-11.5l-6.2-4.3c-8.7-5.6-17.3-10.5-26.6-15.1c-4.7-2.3-9.4-4.4-14.3-6.3
			l-11.3-4.2c-1.3-0.4-2.6-0.8-4.1-1.3c-13.3-4.4-28.9-7.8-43-9.1c-6.5-0.6-12.6-1.2-19.7-1.2c-1.6,0-2.9-0.2-4.9-0.2L268.3,70
			c-8.8,1-18.3,2.6-26.7,4.6c-13.9,3.4-26.6,7.3-39,13.1c-20.1,9.4-32.2,16.6-50.1,30.6c-0.6,0.5-0.9,0.8-1.5,1.3l-12.5,10.9
			c-1.8,1.6-6.4,6.1-7.7,7.8l-6.2,6.8c-0.6,0.6-0.7,0.8-1.2,1.4l-3.6,4.3c-4.8,5.7-9.1,11.7-13.3,18c-0.7,1.1-1.3,2-2,3.1
			c-7.8,11.6-14.2,24.7-19.5,37.9c-2.1,5.1-3.7,10.2-5.5,15.4c-3.2,9.4-5.4,19.2-7.1,29.1c-0.3,1.6-0.5,3.2-0.7,4.6
			c-0.7,4.5-1.5,9.3-1.7,13.8l-0.6,9.8c-0.4,2.6-0.1,12.1-0.1,15.2c0,3.6,0.2,6.7,0.5,10c0.3,3.4,0.4,6.3,0.8,9.6
			c1.6,11.9,3.5,23.6,6.7,34.9c3.9,13.6,8.2,25.6,14.2,37.7c1.1,2.2,2.3,4.8,3.5,6.9c1.3,2.2,2.4,4.5,3.7,6.7
			c4.3,7.6,9.2,15,14.4,21.9c0.8,1.1,1.5,2,2.3,3c5.9,7.8,12.6,15.3,19.5,22.2c3,3,6.1,6,9.4,8.7c0.6,0.5,0.9,0.9,1.4,1.4
			c2,1.6,3.7,3.1,5.7,4.8c3.9,3.1,7.7,6.1,11.8,9l17.3,11.2c5,3,10.1,5.7,15.4,8.2c0.7,0.3,1.1,0.4,1.8,0.8
			C225,507.7,258.7,515.9,288.9,515.9 M293,510.1c-2.5,0-4.2-0.2-6.5-0.2c-1.1,0-2.2,0-3.3,0c-4.5-0.1-11.4-0.7-15.8-1.3
			c-4.1-0.6-7.8-1-11.7-1.7c-7.6-1.3-14.8-2.9-22.1-5c-3.7-1.1-6.9-2.1-10.4-3.2c-5-1.7-10-3.6-14.8-5.6c-1.6-0.7-3.3-1.4-4.8-2.1
			l-4.6-2.1c-3-1.2-6-3-8.9-4.5c-5.2-2.6-10-5.9-15-8.9c-3.5-2.1-6.8-4.6-10.2-7c-3.9-2.7-7.8-5.9-11.4-9
			c-3.8-3.2-13.2-11.4-16-14.6l-3.2-3.5c-2.3-2.3-4.4-4.8-6.5-7.2c-5.2-5.9-10.3-12.6-14.7-19.1c-3.2-4.8-6.4-9.6-9.2-14.7
			c-2.9-5.2-5.6-10.3-8.1-15.7l-3.2-7c-14.8-33.7-20.5-74.4-15.8-111c0.8-6.1,1.6-11.5,2.8-17.4c1.1-5.6,2.4-11,4-16.4
			c3.9-13.5,9-26.4,15.3-38.9c3-5.9,6.4-11.6,9.8-17.3c0.4-0.7,0.8-1.2,1.3-2c0.5-0.8,0.8-1.4,1.3-2.1c4.4-6.8,9.6-13.1,14.5-19.5
			c0.4-0.6,0.9-1.2,1.5-1.8c4.7-5.5,9.7-10.7,14.8-15.8l9.7-8.8c7.7-6.5,15.9-12.5,24.4-18l17.2-9.9c1.5-0.8,2.9-1.5,4.5-2.2
			c0.9-0.4,1.5-0.7,2.3-1.2l7-3.2c4.9-2.1,9.7-4,14.7-5.7c36.7-12.3,71.2-14.7,109.6-8.4c5.8,1,11.2,2.1,16.7,3.7
			c1.9,0.5,3.6,1,5.3,1.4c1.8,0.5,3.3,1.1,5.1,1.6c6.8,1.9,13.3,4.6,19.8,7.3c4.7,1.9,9.3,4.2,13.9,6.5c11.7,5.9,22.8,13.1,33.2,21
			c3.2,2.5,9.9,7.7,13,10.8l5.3,4.9c1.9,1.4,3.5,3.4,5.2,5l8.1,8.8c0.4,0.4,0.3,0.5,0.7,0.9c2.9,3.4,5.8,6.7,8.4,10.3l9.7,13.9
			l13.4,23.9c3,6,5.8,12.7,8,19.1c1.8,5.1,3.5,10.1,5,15.4c7.2,25.9,10.5,57.2,6.8,85.3c-2.6,19.4-6.5,36.5-13.7,54.4
			c-2.1,5.3-4.2,9.5-6.2,14.2c-0.6,1.6-1.5,3.1-2.2,4.5l-4.8,8.9c-0.4,0.7-0.8,1.4-1.2,2l-5.2,8.5c-5.2,7.9-10,14.3-15.9,21.6
			c-3,3.8-6.3,7.4-9.6,10.7l-6.8,6.8c-2.7,2.7-5.8,5.7-8.8,8.1c-5.1,4-10,8.3-15.3,12c-4.7,3.2-9.4,6.4-14.3,9.4
			c-3.6,2.2-7.2,4.3-11,6.1l-6.8,3.4c-9.4,4.2-13,6.2-24.1,9.9c-3.5,1.1-6.9,2.2-10.4,3.2c-10.2,3-29.5,6.8-40.1,7.4
			c-4.4,0.2-8.4,0.7-13,0.7C297.3,509.9,295.6,510.1,293,510.1z"/>
		<path class="st1" d="M562.1,258.4l-1.7-9.4l-12.9-4.2l10.7-8.4l-1.7-9.7L539,241.9l-11.7,2.1l1.5,8.5l11.8-2.1L562.1,258.4z
			 M551.2,208.5c-3.1-9.3-11.8-13.7-20.9-10.6c-9.1,3.1-13.3,11.8-10.2,21.1c2,5.9,6.2,9.6,11.4,11l2.4-8.3c-3-0.8-5.1-2.6-6.1-5.5
			c-1.3-3.7,0.2-8.2,5.3-9.9c4.6-1.6,8.8,0.5,10.2,4.6c1,2.9,0.4,5.6-1.6,7.9l6.4,5.9C552.2,220.5,553.2,214.4,551.2,208.5z
			 M542.5,185.2l-3.9-7.7l-15.9,8.1l9.9-19.8l-3.8-7.5l-28.2,14.4l3.9,7.7l15.9-8.1l-9.9,19.8l3.8,7.5L542.5,185.2z M504.8,165.4
			l-8.7-13.6l3.8-2.5l8.1,12.7l6.4-4.1l-8.1-12.7l3.5-2.2l8.7,13.6l6.4-4.1l-13.4-20.8L485,148.7l13.4,20.8L504.8,165.4z
			 M497.1,113.4c-6.5-7.5-16.3-8.4-23.5-2.1c-7.2,6.3-7.8,16-1.3,23.6c4.9,5.6,14,8.1,22,1.2c0.7-0.6,1.4-1.2,2-2L486,122.1
			l-4.8,4.1l4.9,5.6c-2.9,1.3-5.6,0.6-8.2-2.4c-2.6-3.1-2.9-7.7,1.4-11.5c3.7-3.2,8.4-3.1,11.3,0.3c1.8,2,2.3,4.1,2.2,6.1l8.5,0.7
			C501.7,121.2,500.4,117.2,497.1,113.4z M464.5,93.9l-3.7,9.2l-4.9-4.3L464.5,93.9z M474.1,90.8l-7.7-6.6l-29.8,16.1l6.8,5.9
			l5.5-3.2l8.9,7.7l-2.4,5.9l6.9,6L474.1,90.8z M442.2,68.8c-3.3-5.3-6.4-7.5-9.9-9.5c-6.6-3.8-13-2.8-16.2,2.4
			c-2.9,4.8-1.9,9,3.8,13.7l0.9,0.8c3.1,2.5,4.6,3.8,3.8,5.2c-0.8,1.4-2.6,1.1-4.6-0.1c-4.2-2.4-5.9-5.4-7.4-8l-7.1,4
			c1.9,4,5.7,7.8,10.6,10.6c5.8,3.4,13.2,4.2,17.2-2.8c2.4-4.2,1.1-8.6-3.9-12.9l-0.8-0.7c-2.5-2.2-5.2-3.9-4.3-5.5
			c0.7-1.2,2.5-0.9,4.5,0.2c3.4,1.9,5.4,4.8,6.6,6.8L442.2,68.8z M404.5,71.8l-14.7-6.7l1.9-4.2l13.7,6.2l3.2-7L394.8,54l1.7-3.8
			l14.7,6.7l3.2-7l-22.6-10.2l-13.1,28.9l22.6,10.2L404.5,71.8z M382.9,39.1c-4.5-4.3-8-5.7-12-6.9c-7.3-2.1-13.3,0.4-15.1,6.2
			c-1.7,5.3,0.4,9.2,7.1,12.4l1.1,0.5c3.6,1.7,5.4,2.5,4.9,4.1c-0.4,1.5-2.2,1.6-4.4,1c-4.6-1.3-7.1-3.8-9.1-6l-6,5.6
			c2.8,3.5,7.4,6.2,12.8,7.7c6.5,1.8,13.8,0.8,16-6.9c1.3-4.7-1-8.6-7-11.6l-0.9-0.5c-2.9-1.5-6-2.5-5.5-4.3
			c0.4-1.4,2.3-1.5,4.5-0.9c3.8,1.1,6.4,3.3,8.1,5L382.9,39.1z M350.6,27.4l-8.5-1.5l-5.6,31.2l8.5,1.5L350.6,27.4z M323.6,30.9
			c2.1,0.3,3.6,1.4,3.3,3.3c-0.2,1.9-1.9,2.6-4,2.3l-5.4-0.7l0.7-5.6L323.6,30.9z M324.6,23.3l-14-1.8l-4,31.4l8.5,1.1l1.4-11.1
			l0.5,0.1l6.2,12.1l10.1,1.3l-7.1-12.6c5.5-0.4,8.7-3.6,9.3-8.4C336.3,29,332.6,24.3,324.6,23.3z M290.3,29.2
			c2.1-0.1,3.7,1.1,3.8,3.1c0.1,2.1-1.5,3.3-3.6,3.3l-5.4,0.1l-0.2-6.4L290.3,29.2z M290.8,43.2c7.9-0.2,12.1-4.7,11.9-11.1
			c-0.2-6.5-4.5-10.8-12.6-10.6L276,21.8l0.8,31.7l8.6-0.2l-0.3-10L290.8,43.2z M257.7,31.5c2.1-0.3,3.8,0.4,4,2.3
			c0.2,1.9-1.2,3-3.3,3.2l-5.4,0.7l-0.7-5.6L257.7,31.5z M256.8,23.9l-14,1.8l4,31.4l8.5-1.1l-1.4-11.1l0.5-0.1l9,10.2l10.1-1.3
			l-10-10.4c5.2-1.8,7.5-5.6,6.9-10.5C269.5,26.4,264.8,22.8,256.8,23.9z M240.7,50.5L225.1,55l-1.2-4.4l14.5-4.1l-2.1-7.4
			l-14.5,4.1l-1.1-4l15.5-4.4l-2.1-7.4l-23.8,6.8l8.7,30.5l23.8-6.8L240.7,50.5z M204.7,35.9l-24.8,9.8l2.9,7.4l8.4-3.3l8.7,22.1
			l8-3.2l-8.7-22.1l8.4-3.3L204.7,35.9z M173.2,48.7l-7.5,4.3l8.9,15.4l-20.2-8.9l-7.3,4.2l15.8,27.5l7.5-4.3l-8.9-15.4l20.2,8.9
			l7.3-4.2L173.2,48.7z M154.6,87.2l-12.7,10l-2.8-3.6l11.8-9.3l-4.7-6l-11.8,9.3l-2.6-3.3l12.7-10l-4.7-6l-19.5,15.3l19.6,24.9
			l19.5-15.3L154.6,87.2z M102.6,112l9,4.1l-4.5,4.7L102.6,112z M99.9,102.4l-7,7.3l14.7,30.5l6.2-6.5l-2.9-5.7l8.2-8.6l5.8,2.6
			l6.3-6.6L99.9,102.4z M80.4,123.9l-5,7L90,141.2l-22.1,0.3l-4.9,6.8l25.8,18.4l5-7l-14.5-10.3l22.1-0.3l4.9-6.8L80.4,123.9z
			 M59.2,173.5l9.8,1.4l-3,5.8L59.2,173.5z M53.9,165l-4.6,9L72,199.2l4.1-8l-4.4-4.6l5.4-10.5l6.3,0.9l4.2-8.1L53.9,165z
			 M34.7,210.6l-2.8,8.1l30,10.2l2.8-8.1l-11.4-3.9l3.8-11.1l11.4,3.9l2.8-8.1l-30-10.2l-2.8,8.1l11.1,3.8l-3.8,11.1L34.7,210.6z
			 M26.4,241.5c-1.7,9.8,3.7,17.9,13.2,19.6c9.4,1.7,17.4-4,19.1-13.8c1.3-7.3-2.5-16-12.9-17.8c-0.9-0.2-1.8-0.3-2.8-0.3l-2.8,15.5
			l6.2,1.1l1.3-7.3c2.9,1.4,4,3.9,3.3,7.9c-0.7,4-4.2,7.2-9.8,6.1c-4.9-0.9-7.7-4.6-6.9-9c0.5-2.7,1.7-4.4,3.3-5.5l-4.8-7
			C29.6,233.1,27.3,236.6,26.4,241.5z"/>
		<path class="st1" d="M523.2,411.7l-4.7,8.1l-4.7-2.7l4.5-7.7l-1.5-0.8l-4.5,7.7l-4.6-2.7l4.6-8l-1.5-0.9l-5.5,9.6l13.7,7.9
			l5.6-9.7L523.2,411.7z M516.4,423.8l-5,7.7l-11.9-7.7l-1,1.5l13.3,8.6l6-9.2L516.4,423.8z M495.3,433.3c1.4-2,3-2.5,4.7-1.3
			c1.7,1.2,1.7,2.8,0.3,4.8l-2.4,3.3l-4.9-3.5L495.3,433.3z M501.7,437.7c2.1-2.9,1.8-5.6-0.6-7.3c-2.4-1.7-5.1-1.1-7.1,1.8
			l-3.5,4.9l12.9,9.2l1.1-1.5l-5.2-3.7L501.7,437.7z M484.9,446.9c2.2-2.8,5.9-3.4,8.9-1c3,2.3,3.4,6.1,1.2,8.9
			c-2.2,2.8-5.9,3.4-8.9,1C483.1,453.4,482.7,449.7,484.9,446.9z M483.5,445.8c-2.9,3.7-2.4,8.5,1.4,11.5c3.7,2.9,8.6,2.3,11.5-1.4
			c2.9-3.7,2.4-8.5-1.4-11.5C491.2,441.5,486.4,442.1,483.5,445.8z M487.8,463.3l-6.4,6.7l-3.9-3.7l6.2-6.5l-1.2-1.2l-6.2,6.5
			l-3.8-3.7l6.4-6.7l-1.2-1.2l-7.6,8l11.5,11l7.7-8.1L487.8,463.3z M465.1,468.8c1.8-1.7,3.4-1.9,4.8-0.4c1.4,1.5,1.1,3.1-0.6,4.8
			l-3,2.8l-4.2-4.4L465.1,468.8z M470.6,474.4c2.6-2.5,2.8-5.1,0.8-7.3c-2.1-2.2-4.8-2-7.3,0.4l-4.3,4.1l11,11.5l1.3-1.3l-4.4-4.6
			L470.6,474.4z M447.6,481.9c-3.7,2.9-4.3,7.7-1.4,11.5c3.2,4,8.1,4,11.4,1.4c3.8-3,3.8-7.6,1-11.2c-0.1-0.1-0.2-0.2-0.3-0.4
			l-5.4,4.3l1,1.3l3.9-3.1c1.8,2.7,1.4,5.6-1.2,7.7c-2.7,2.2-6.5,1.8-8.8-1.2c-2.4-3-1.8-6.7,1-8.9c1.6-1.2,3.4-1.6,5.1-1.2l0.3-1.8
			C451.9,479.8,449.6,480.3,447.6,481.9z M439,488.9l-1.5,1.1l7.4,10.4l-15.4-4.7l-1.3,1l9.2,12.9l1.5-1.1l-7.4-10.4l15.4,4.7l1.3-1
			L439,488.9z M425,498.5l-1.5,1l8.5,13.4l1.5-1L425,498.5z M417.1,505.4c2.1-1.2,3.6-1,4.6,0.6c0.9,1.6,0.3,3.1-1.7,4.3l-3.8,2.2
			l-2.8-4.8L417.1,505.4z M410.9,507l7.9,13.7l1.6-0.9l-3.5-6l1.7-1l8.3,3.2l2-1.1l-8.4-3.1l0.2-0.1c2.9-1.7,3.9-4.3,2.5-6.6
			c-1.4-2.5-4-2.9-7-1.1L410.9,507z M414.5,521.1l-8.3,4.2l-2.4-4.8l8-4l-0.8-1.5l-8,4l-2.4-4.7l8.2-4.2l-0.8-1.5l-9.9,5l7.2,14.2
			l9.9-5L414.5,521.1z M397,514.5l-1.7,0.7l0.9,14.5l-9.2-11.2l-1.9,0.7l0.8,14.5l-9.1-11.3l-1.8,0.7l10.6,12.9l2.1-0.8l-0.8-14.1
			l9,10.9l2.1-0.8L397,514.5z M366.7,527.5c3.4-1.2,6.8,0.4,8,4c1.2,3.6-0.5,6.9-3.9,8.1c-3.4,1.2-6.8-0.4-8-4
			C361.6,532,363.3,528.7,366.7,527.5z M366.1,525.8c-4.5,1.5-6.6,5.9-5.1,10.4c1.5,4.5,5.9,6.6,10.4,5c4.5-1.5,6.6-5.9,5.1-10.4
			C375,526.4,370.6,524.3,366.1,525.8z M352.4,531.6c2.4-0.5,3.9,0.1,4.3,2.1c0.5,2-0.6,3.3-3,3.8l-4,0.9l-1.4-5.9L352.4,531.6z
			 M354.2,539.2c3.5-0.8,5.1-3,4.4-5.9c-0.7-2.9-3.1-4.2-6.5-3.4l-5.8,1.3l3.6,15.5l1.8-0.4l-1.4-6.2L354.2,539.2z M342.5,532.1
			l-2.7,0.5l-3.3,12.8l-7.6-10.8l-2.7,0.5l2.8,15.6l1.8-0.3l-2.5-13.5l7.6,10.8l1.9-0.3l3.3-12.9l2.5,13.6l1.8-0.3L342.5,532.1z
			 M324.8,549.5l-9.3,0.7l-0.4-5.4l8.9-0.7l-0.1-1.7l-8.9,0.7l-0.4-5.3l9.2-0.7l-0.1-1.7l-11,0.8l1.2,15.8l11.1-0.8L324.8,549.5z
			 M301.9,550l-0.5,5.7l1.5,0l1-5.8L301.9,550z M298.4,543.1c-1-0.7-2.6-1.1-4.3-1c-2.6,0.1-4.2,1.3-4.2,3.4c0,1.6,1.2,2.6,3.6,2.9
			l1.3,0.1c1.5,0.1,2.3,0.6,2.3,1.5c0,1.1-1.1,1.8-2.9,1.8c-1.8,0.1-2.9-0.4-3.7-1.1l-0.7,1.3c1.4,1,3.1,1.3,4.5,1.2
			c2.9-0.1,4.7-1.4,4.6-3.4c0-1.8-1.4-2.7-3.7-2.9l-1.3-0.1c-1.4-0.1-2.2-0.5-2.2-1.4c0-1,1-1.7,2.5-1.8c1.4,0,2.8,0.5,3.5,0.9
			L298.4,543.1z M287,551.2l-9.3-0.3l0.2-5.4l8.9,0.3l0-1.7l-8.9-0.3l0.2-5.3l9.2,0.3l0-1.7l-11-0.3l-0.5,15.9l11.1,0.3L287,551.2z
			 M273.1,536.5l-2.8-0.3l-6.9,11.2l-4-12.6l-2.7-0.3l-2,15.7l1.8,0.2l1.7-13.6l4,12.6l1.9,0.2l7-11.3l-1.7,13.7l1.8,0.2
			L273.1,536.5z M253.4,535.5c-1.3-1.3-2.9-2.3-5.3-2.7c-3.3-0.6-6.2,0.6-6.7,3.6c-0.5,2.6,1.2,4.2,3.9,5l1.5,0.5
			c2.4,0.7,3.6,1.7,3.3,3.2c-0.3,1.9-2.4,2.5-4.8,2.1c-2-0.4-3.9-1.6-4.8-2.7l-1.2,1.3c1.3,1.5,3.5,2.7,5.8,3.1
			c3.4,0.6,6.5-0.5,7-3.6c0.5-2.7-1.6-4.2-4.1-5l-1.4-0.4c-2.4-0.7-3.4-1.7-3.1-3.2c0.3-1.8,2.2-2.5,4.5-2.1
			c1.9,0.3,3.3,1.2,4.4,2.3L253.4,535.5z M239.5,531.6l-2.7-0.8l-8.6,10l-2.1-13l-2.7-0.8l-4.3,15.3l1.8,0.5l3.7-13.2l2,13l1.8,0.5
			l8.6-10.1l-3.8,13.3l1.8,0.5L239.5,531.6z M208.7,522c-4.3-1.7-8.9,0.1-10.6,4.5c-1.9,4.8,0.7,9,4.5,10.6
			c4.4,1.8,8.5-0.5,10.2-4.8c0.1-0.1,0.1-0.3,0.2-0.4l-6.4-2.6l-0.6,1.6l4.6,1.8c-1.5,2.9-4.1,4-7.2,2.8c-3.2-1.3-4.8-4.7-3.4-8.2
			c1.4-3.5,4.9-4.9,8.2-3.6c1.8,0.7,3.1,2.1,3.7,3.8l1.7-0.7C212.7,524.7,211,523,208.7,522z M198.3,518.1l-1.7-0.7l-5.2,11.6
			l-3.7-15.6l-1.5-0.7l-6.5,14.5l1.7,0.7l5.2-11.6l3.7,15.6l1.5,0.7L198.3,518.1z M182.8,510.9l-1.6-0.8l-7.2,14.1l1.6,0.8
			L182.8,510.9z M177.8,508.5l-2.4-1.4l-10.8,7.6l1.2-13.1l-2.4-1.4l-7.9,13.7l1.6,0.9l6.9-11.9l-1.2,13.1l1.7,1l10.8-7.7l-6.9,12
			l1.6,0.9L177.8,508.5z M156.1,497.4c1.9,1.4,2.4,2.9,1.4,4.4c-1.1,1.5-2.7,1.6-4.6,0.2l-3.6-2.5l3.2-4.6L156.1,497.4z M152,492.4
			l-9.2,12.9l1.5,1.1l4-5.6l1.6,1.2l0.5,8.9l1.8,1.3l-0.6-8.9l0.2,0.2c2.7,2,5.5,1.8,7.1-0.5c1.7-2.3,1-4.8-1.9-6.9L152,492.4z
			 M142.1,487c2.8,2.2,3.4,5.9,1,8.9c-2.3,3-6.1,3.4-8.9,1.2c-2.8-2.2-3.4-5.9-1-8.9C135.6,485.2,139.3,484.8,142.1,487z
			 M143.2,485.6c-3.7-2.9-8.5-2.4-11.5,1.4c-2.9,3.7-2.3,8.6,1.4,11.5c3.7,2.9,8.5,2.4,11.5-1.4
			C147.6,493.4,146.9,488.6,143.2,485.6z M130.4,484.6l-6.6-5.7l3.5-4l6.9,6l1.1-1.3l-8.3-7.2l-10.4,12l1.4,1.2l4.7-5.4l6.6,5.7
			L130.4,484.6z M123.7,471.2c-0.4-1.7-1.2-3.5-2.9-5.2c-2.4-2.3-5.5-2.9-7.6-0.7c-1.8,1.9-1.3,4.2,0.5,6.3l1,1.2
			c1.6,1.9,2,3.4,1,4.5c-1.3,1.4-3.4,0.8-5.2-0.9c-1.5-1.4-2.4-3.5-2.6-4.9l-1.7,0.4c0.2,1.9,1.4,4.2,3.1,5.8
			c2.5,2.4,5.7,3.2,7.8,0.9c1.9-2,1-4.4-0.7-6.4l-1-1.2c-1.6-1.9-1.9-3.3-0.9-4.4c1.2-1.3,3.2-0.9,4.9,0.8c1.4,1.3,2.1,2.9,2.4,4.4
			L123.7,471.2z M114.5,460.1l-1.2-1.4l-9.6,8.3l3.2-15.7l-1.1-1.2l-12,10.4l1.2,1.4l9.6-8.3l-3.2,15.7l1.1,1.2L114.5,460.1z
			 M98.3,443.7l-4.2,7.4l-4-5.1L98.3,443.7z M100.5,443.5l-1.4-1.8l-16.5,4.7l1.2,1.5l4.6-1.3l4.8,6.2l-2.4,4.1l1.2,1.5L100.5,443.5
			z M90,432.2c1.4,1.9,1.4,3.5-0.1,4.6c-1.5,1.1-3,0.6-4.4-1.3l-2.5-3.5l4.6-3.3L90,432.2z M87.8,426.2l-12.9,9.2l1.1,1.5l5.6-4
			l1.2,1.6l-2.4,8.5l1.3,1.8l2.3-8.6l0.2,0.2c2,2.7,4.6,3.5,6.8,1.9c2.3-1.7,2.5-4.2,0.4-7.1L87.8,426.2z M86.9,424.5L80,413.7
			l-1.4,0.9l3,4.6l-11.9,7.6l1,1.5l11.9-7.6l3,4.6L86.9,424.5z"/>
		<path class="st2" d="M259.4,214.6c-1.7-2-34.6-27.4-36.2-29.4c-1.7-0.9-25-19.9-28.5-22.7c-1.7-1.3-2.2-2-4.9-2.4
			c-4.5-0.7-6.9,2.6-9.2,4.9l-14.7,14.5c-2.3,2.3-5,4.7-5.5,7.7v2.4c0.2,1.3,0.9,2.8,2.1,4.4c5.7,7.5,13.5,16.6,19.5,24.3
			c1.2,1.5,2,3,1.9,5.4c-0.1,3.3-6.6,17.9-7.9,21.2c-0.8,1.9-7.4,17.8-8.2,20.8c-0.2,0-0.4,0-0.5,0c-1.8,0.5-31.7,4.1-36.1,4.7
			c-2.1,0.3-2.9,0.2-5.1,1.9c-3.7,2.7-2.9,6.7-2.9,10.1l0.1,20.6c0.1,3.3-0.1,6.8,1.7,9.3l1.7,1.7c1.1,0.8,2.6,1.3,4.6,1.5
			c9.3,1.1,21.3,1.8,31,2.9c1.9,0.2,3.5,0.6,5.2,2.4c2.2,2.4,8.2,17.2,9.7,20.4c0.8,1.7,6.8,16,8.9,19.8
			c-7.3,9.1-14.6,18.2-21.5,27.1c-2.5,3.2-6.7,7.5-2.8,12.7l18.9,18.9c3.2,3.2,6.3,7.5,12.6,3.8c1.1-0.7,22-17.3,24.8-20
			c6.1-5.7,5.5-3.9,14.2-0.5l20.3,8.1c2.3,0.9,4.5,1.8,6.7,2.7c1.4,0.6,5.8,2.6,7.1,2.6l-4.9-45.6c-0.6-0.7-8.7-4.2-11.3-5.7
			c-4.4-2.5-9.4-6.5-13.2-9.7c-6.3-5.2-14.1-15.1-17.9-22.5c-0.5-1-3.2-6.5-4-7.5c0.6-0.9,0.3-1.1,0.2-1.4c-0.1-0.2-0.3-0.8-0.4-0.9
			c-1.7-3.9-3.7-10.2-4.5-14.1c-0.6-2.8-1.1-5.2-1.4-8.1l-0.6-14.2l1.1-10.2c0.8-4.6,2.2-9.8,3.7-14.2c0.2-0.5,0.3-0.8,0.5-1.2
			c1.2-0.2,1.1-0.6,1.3-0.9c0.1-0.2,0.3-0.7,0.4-0.9c1.6-3.9,4.8-9.8,7-13.1c1.6-2.4,3-4.4,4.8-6.6l9.8-10.3l8-6.3
			c3.8-2.6,8.5-5.3,12.8-7.3C258.3,215.2,258.7,215.1,259.4,214.6"/>
		<path class="st3" d="M223.2,185.2c1.6,2,34.5,27.5,36.2,29.4l7-2.6c5.7-1.8,14-3.6,20-3.9l4.7-0.3c10.6-0.1,19.6,1.6,29.2,4.7
			c1.2,0.4,2.5,1,3.7,1.3l-5.1-46.6l-1.2-11.3c-0.5-4-0.7-7.6-1.2-11.5c-0.5-3.6-1-7.6-1.2-11.3c-0.5-8.5-4.3-10-9.6-10.2h-5.5
			h-20.7c-2.1,0.1-3.6,0.2-4.2,0.4c-6,2.4-5.3,7.4-6.1,13c-0.7,5.2-2.3,25.7-3.4,28.1c-1.4,3.2-4.1,4.2-7.3,5.5
			c-5.9,2.4-11.8,5.1-17.7,7.6L223.2,185.2z"/>
		<path class="st4" d="M325.5,369.9c1.5,1.6,24.2,19.5,27.4,22.1c1.7,1.4,8.2,6.4,9.1,7.6c1.5,0.7,8.1,6.3,10.1,7.9
			c0.7,0.6,1.3,1,2,1.6c1.4,1.1,2.7,2.2,4.1,3.2l12.1,9.8c1.4,1,2.8,2.2,5.1,2.2c4.9,0.1,6.2-2.1,9.3-5.3c2.5-2.5,4.8-4.8,7.3-7.3
			c2.5-2.5,4.8-4.8,7.3-7.3c1.8-1.8,4.7-4,5.3-7.3v-2.3c-0.1-0.8-0.4-1.6-0.9-2.5c-0.8-1.6-3.5-4.7-4.7-6.2L406,370
			c-5.4-6.7-6.4-7-3.3-14.9c1.9-4.8,13.7-33.2,14.5-36.4l6.7-0.8c1.6-0.2,31.7-3.6,33.1-4.2c0.8-0.3,1.4-0.7,2-1.1l1.4-1.4
			c3.1-4.1,1.8-11.2,1.8-16.6c0-3.6-0.6-9.3-0.3-13.1c0.2-2.2,0.4-4.5-0.3-6.6c-0.8-2.5-2.5-4.5-5.1-5.3c-2.7-0.8-29-3.3-33.2-3.7
			c-5.6-0.5-6.9-4.7-9.4-10.5c-1.8-4.2-11.9-28.1-14.4-32.6l3.9-4.9c1-1.3,20.1-24.8,20.7-26.2c0.3-0.7,0.5-1.5,0.6-2.2v-1.9
			c-0.7-5.1-6.5-9.2-10.4-13.1c-2.5-2.5-6.9-6.2-9.4-9.1c-1.4-1.7-2.9-3.5-4.8-4.5c-2.3-1.3-4.9-1.4-7.3-0.2
			c-2.5,1.3-23,18-26.2,20.7c-4.3,3.6-8.2,1.4-14-0.9c-4.4-1.8-30.5-12.7-33.6-13.3l5.1,46.6c1,0.8,5.3,2.4,7.5,3.7
			c3.9,2.3,6.9,3.8,10.6,6.6c2.2,1.6,9,7,10.7,9.1c0.6,0.7,0.6,0.9,1.3,1.6l4,4.6c0.5,0.5,0.8,1.1,1.2,1.6
			c2.9,3.8,10.1,14.3,10.4,18.2c0.2-0.1,0.5-0.2,0.7-0.3l-0.3,0.4c0.2,1.3,2.1,5.4,2.8,7.8c1.2,4.4,2.2,7.6,2.9,12.1
			c0.4,2.7,1.5,11.3,1.3,14c-0.1,0.9-0.2,1.1-0.2,2l-0.3,6.1c0,0.7-0.2,1.4-0.2,2c-0.6,4.6-2.7,16.8-5.2,20.1l-0.7,0.1l-3.6,7.6
			c-1.2,2.5-2.8,5-4.3,7.2c-4.1,6.2-10.3,13.6-16.1,18.3c-6.2,5-10.3,7.8-17.3,11.3C328.1,368.6,326.6,369.1,325.5,369.9"/>
		<path class="st3" d="M261.4,370.7l4.9,45.6c-0.2,1.4,0.3,4.3,0.4,5.7c0.5,7.9,2.2,20.5,3.1,28.7c1.1,10.1,4.7,10.9,14.4,10.9h19.2
			c2.6-0.1,4.7-0.3,5.7-0.6c3-1,5.3-3.5,5.9-6.9c0.8-4.2,2-17.7,2.7-22.6c0.5-3.6,0.4-8.5,1.6-11.2c1.5-3.6,3.8-4.1,7.2-5.6
			l33.3-14.2c0.9-0.3,1.6-0.8,2.4-1c-0.8-1.2-7.4-6.2-9.1-7.6c-3.2-2.7-25.9-20.6-27.4-22.1l-3.3,1.3c-17.6,7-39.1,6.8-57,0.8
			C263.9,371.5,262.8,370.9,261.4,370.7"/>
		<path class="st0" d="M330.4,295.9h6.2l-3.1-9.4L330.4,295.9z M325.2,311.3h-16.8l13.2-38h24l13.2,38h-16.8l-2.2-6.4h-12.3
			L325.2,311.3z M306.9,301.7v9.5h-31.5v-38h31.5v9.5h-14.7v4.7h10.3v9.5h-10.3v4.7H306.9z M270.2,277.8l-8.1,11.4
			c-3.4-1.6-6.5-2.4-9.4-2.4c-1.9,0-3.4,0.5-4.6,1.5c-1.2,1-1.7,2.3-1.7,3.9c0,3.1,2,4.6,6.1,4.6v-5.9h16.8v20.5
			c-6.8,0.4-11.4,0.6-13.8,0.6c-9.3,0-15.7-2-19.4-5.9c-3.6-3.9-5.4-8.6-5.4-13.8c0-3.6,0.8-6.9,2.5-10c1.7-3,4.1-5.4,7.3-7
			c3.2-1.7,6.9-2.5,11.3-2.5c3,0,6.2,0.4,9.5,1.3C264.6,274.9,267.6,276.2,270.2,277.8z M129.5,262H456c3.4,0,6.2,2.8,6.2,6.2v48.9
			c0,3.4-2.8,6.2-6.2,6.2H129.5c-3.4,0-6.2-2.8-6.2-6.2v-48.9C123.3,264.8,126.1,262,129.5,262z"/>
	</g>
</g>
</svg>
