<svg xmlns="http://www.w3.org/2000/svg" width="113" height="112" fill="none"><g stroke="#212833" stroke-linecap="round" stroke-linejoin="round" stroke-width="2" clip-path="url(#a)"><path d="M24.1 5.7C23 13 6.1 70.2 3.8 83.4c1.4.6 2.4.2 3.8 0 2-.2 4.8-1.2 6.9-1.5a33 33 0 0 1 21.4 6.2"/><path d="M82 44c2.7-7.8 9.8-25.8 13-34.4C90 5.3 78.3 5 73.3 5 63.6 5 55 7 45.7 8.6 43 9.1 30.7 10 24 6m69.2 10c5.3.6 11.4 3.7 13.7 5.9-4.3 9.4-7.4 14.9-10.9 25.9"/><path d="M29.9 18.5c4.4 3.2 11.4 3.3 16.7 2.7 10.8-1.3 19.8-6 32.7-4.6M28 29.9c5.6 3 9.6 4 16 4 11.1-.2 19.4-5.9 32-5.9M32 43.2c8.4 3.6 15.6 2 24.5-.4m34.2-20c1 0 1.6.1 2.2.6M87.3 31c.8 0 1.6.1 2.4.5M71.7 69c.5-2.3.7-4.7.7-7 .3-7.8-7.3-11.6-14.3-11.7-8.5-.2-15.3 8-16.6 15.7-.7 4-.6 8.7 4.9 8.9 7.2.2 5.9-9.3 11-11 3.5-1.2 4.4 2.4 3.9 5-1 4.7-2 13.8-7 16.1-1 .5-2.9.7-4 .1-2.2-1-1.4-2.1-1.4-4-.1-3.3-.6-5.7-4.4-6-9.5-1-8.9 14.8-5.4 20.3"/><path d="M70.2 55a32 32 0 0 1 6.7-6.8c2.2-1.8 5.5-3.5 8-3.7 3.6-.3 8.4 1.7 7 5.8C90.7 54 86.4 56 84 59a34.6 34.6 0 0 0-5.6 11.7"/><path d="M92.4 48.6c6.1-2.2 10.8 4 5.7 9.3-2.7 2.8-6 4.9-8.5 7.8-1.6 2-3 4.4-3.8 7"/><path d="M100.4 53.6c1.4-.6 4-.5 5.4 1 1.6 1.4 1.6 3.3.8 5.2-1.3 3.3-4.8 5.6-8.1 8.7a30.2 30.2 0 0 0-5.8 7.4c-3.5 6.2-5 11.5-8.3 17.6-3.5 6.3-7.2 11.3-13.6 13.4a22.8 22.8 0 0 1-14.4 1c-2.5-.6-6.6-2.2-9.2-3.7a20.7 20.7 0 0 1-8.5-9.4"/></g><defs><clipPath id="a"><path fill="#fff" d="M.5 0h112v112H.5z"/></clipPath></defs></svg>