<svg width="24" height="24" viewBox="0 0 24 24" fill="none" xmlns="http://www.w3.org/2000/svg"><path fill-rule="evenodd" clip-rule="evenodd" d="M14.8526 15.3285C14.1981 15.3285 13.6676 14.7979 13.6676 14.1435V13.7169C13.6676 13.3897 13.9329 13.1244 14.2601 13.1244C14.5873 13.1244 14.8526 13.3897 14.8526 13.7169V14.1435L16.4878 13.7347C16.5962 13.7031 16.7113 13.7031 16.8196 13.7347L17.815 14.0665V12.5319C17.815 12.2047 17.5498 11.9394 17.2225 11.9394H11.8368C11.5479 13.6485 10.0685 14.9001 8.33521 14.9019C6.38254 14.8763 4.8058 13.2996 4.78027 11.3469C4.78027 10.0004 5.54104 8.76949 6.74539 8.16732C7.94975 7.56514 9.39096 7.69509 10.4682 8.503C10.7299 8.69933 10.783 9.07071 10.5867 9.33248C10.3903 9.59426 10.019 9.64731 9.75718 9.45098C9.03904 8.91238 8.07823 8.82574 7.27533 9.22719C6.47243 9.62864 5.96525 10.4493 5.96525 11.3469C5.98123 12.6492 7.03299 13.7009 8.33521 13.7169C9.49237 13.7188 10.4817 12.8847 10.6755 11.7439C10.772 11.1667 11.2754 10.7464 11.8605 10.7545H17.2225C18.2042 10.7545 19 11.5503 19 12.5319V14.0783C19.0003 14.4591 18.8176 14.8169 18.5089 15.0399C18.2003 15.2629 17.8032 15.324 17.4418 15.204L16.63 14.9019L15.1607 15.2692C15.0611 15.3025 14.9574 15.3225 14.8526 15.3285Z" fill="#9384d1"/></svg>