<svg width="352" height="391" viewBox="0 0 352 391" fill="none" xmlns="http://www.w3.org/2000/svg">
<path d="M129.475 243.65H39.7L175.45 1.40002L235.82 111.725" stroke="#9384d1" stroke-width="2" stroke-miterlimit="10" stroke-linecap="round" stroke-linejoin="round"/>
<path d="M272.425 178.025L308.875 243.65H246.1" stroke="#9384d1" stroke-width="2" stroke-miterlimit="10" stroke-linecap="round" stroke-linejoin="round"/>
<path d="M140.65 211.625H187.15" stroke="#f6f6f3" stroke-width="2" stroke-miterlimit="10" stroke-linecap="round" stroke-linejoin="round"/>
<path d="M140.65 220.25H187.15" stroke="#f6f6f3" stroke-width="2" stroke-miterlimit="10" stroke-linecap="round" stroke-linejoin="round"/>
<path d="M140.65 228.875H187.15" stroke="#f6f6f3" stroke-width="2" stroke-miterlimit="10" stroke-linecap="round" stroke-linejoin="round"/>
<path d="M218.125 209.075L207.925 228.875L203.538 220.138" stroke="#9384d1" stroke-width="2" stroke-miterlimit="10" stroke-linecap="round" stroke-linejoin="round"/>
<path d="M235.075 192.425H235.6V196.925V201.425V334.175H144.325H139.375H134.35V329.675" stroke="#f6f6f3" stroke-width="2" stroke-miterlimit="10" stroke-linecap="round" stroke-linejoin="round"/>
<path d="M139.375 334.175V338.675H144.325H240.625V201.425V196.925H235.6" stroke="#f6f6f3" stroke-width="2" stroke-miterlimit="10" stroke-linecap="round" stroke-linejoin="round"/>
<path d="M240.625 201.425H245.575V343.175H144.325V338.675" stroke="#f6f6f3" stroke-width="2" stroke-miterlimit="10" stroke-linecap="round" stroke-linejoin="round"/>
<path d="M230.575 201.425V329.675H144.325" stroke="#f6f6f3" stroke-width="2" stroke-miterlimit="10" stroke-linecap="round" stroke-linejoin="round"/>
<path d="M129.325 290V329.675H134.35H139.375H144.325" stroke="#f6f6f3" stroke-width="2" stroke-miterlimit="10" stroke-linecap="round" stroke-linejoin="round"/>
<path d="M129.325 256.7V187.925H222.1" stroke="#f6f6f3" stroke-width="2" stroke-miterlimit="10" stroke-linecap="round" stroke-linejoin="round"/>
<path d="M230.575 197.3V201.425" stroke="#f6f6f3" stroke-width="2" stroke-miterlimit="10" stroke-linecap="round" stroke-linejoin="round"/>
<path d="M-5.60001 353.9C22.9 343.4 78.925 319.925 104.2 292.175C113.5 281.975 120.7 272.375 127.375 260.45C128.8 257.9 129.925 255.2 131.275 252.575C132.25 250.7 133.375 248.375 135.55 247.85C141.175 246.575 143.65 253.85 142.9 259.025C141.625 267.95 134.05 272.75 130.825 280.775C129.325 284.45 129.475 287.9 129.4 291.725C129.325 294.2 129.325 295.925 129.325 297.875" stroke="#f6f6f3" stroke-width="2" stroke-miterlimit="10" stroke-linecap="round" stroke-linejoin="round"/>
<path d="M250.3 133.25C245.425 130.325 239.875 129.5 236.275 135.425C232.6 141.425 232.45 149.075 231.175 155.9C229.975 162.575 230.125 169.775 226.9 175.925C225.4 178.7 223.075 180.8 219.925 180.95C216.175 181.1 214.375 178.775 215.275 175.1C215.8 173 215.875 170.6 216.1 168.5C216.475 165.575 216.85 162.65 217.3 159.725C218.125 153.425 219.025 148.625 219.775 142.25C220.75 134.45 221.875 126.2 226.375 119.45C229.6 114.575 235.15 111.5 241 111.65C248.05 111.875 252.325 115.175 258.025 118.85" stroke="#f6f6f3" stroke-width="2" stroke-miterlimit="10" stroke-linecap="round" stroke-linejoin="round"/>
<path d="M269.125 126.5C276.25 130.925 283.675 134.15 290.8 138.65C306.55 148.475 327.025 147.95 344.875 146.3C375.55 143.45 406.675 137.75 435.625 126.95" stroke="#f6f6f3" stroke-width="2" stroke-miterlimit="10" stroke-linecap="round" stroke-linejoin="round"/>
<path d="M261.1 141.05C265.45 144.2 270.025 147.2 273.55 151.4C275.725 154.025 277.75 158.525 275.5 161.75C272.425 166.025 265.45 164.15 261.175 164.15C259.525 164.15 257.8 164.15 256.15 164.375C252.025 164.975 247.75 167.225 246.325 171.575C245.875 173 245.875 174.5 247 175.55C248.2 176.675 249.925 176.375 251.425 176.525C273.925 178.775 296.575 177.65 319.075 178.025C342.7 178.475 414.25 179.75 437.875 179.75" stroke="#f6f6f3" stroke-width="2" stroke-miterlimit="10" stroke-linecap="round" stroke-linejoin="round"/>
<path d="M233.05 194L221.575 187.55L265.225 104.975L276.775 111.425L233.05 194Z" stroke="#f6f6f3" stroke-width="2" stroke-miterlimit="10" stroke-linecap="round" stroke-linejoin="round"/>
<path d="M233.05 194L221.575 187.55L217.6 209.075L233.05 194Z" stroke="#f6f6f3" stroke-width="2" stroke-miterlimit="10" stroke-linecap="round" stroke-linejoin="round"/>
<path d="M250 113.75C244.075 110.45 238.675 110.45 234.475 111.575C229.675 112.85 226.225 115.775 223.225 119.825C217.825 126.95 213.025 134.45 207.925 141.8C203.125 148.775 198.325 155.825 193.825 163.1C191.2 167.375 195.85 171.275 199.825 169.7C203.275 168.275 206.125 165.125 208.3 162.425C210.925 159.125 216.925 151.025 219.325 146.075" stroke="#f6f6f3" stroke-width="2" stroke-miterlimit="10" stroke-linecap="round" stroke-linejoin="round"/>
<path d="M219.775 201.5L222.85 203.15" stroke="#f6f6f3" stroke-width="2" stroke-miterlimit="10" stroke-linecap="round" stroke-linejoin="round"/>
<path d="M214.375 255.35H201.325V267.125H214.375V255.35Z" stroke="#f6f6f3" stroke-width="2" stroke-miterlimit="10" stroke-linecap="round" stroke-linejoin="round"/>
<path d="M141.025 249.875H187.15" stroke="#f6f6f3" stroke-width="2" stroke-miterlimit="10" stroke-linecap="round" stroke-linejoin="round"/>
<path d="M143.125 258.5H187.15" stroke="#f6f6f3" stroke-width="2" stroke-miterlimit="10" stroke-linecap="round" stroke-linejoin="round"/>
<path d="M140.65 267.125H187.15" stroke="#f6f6f3" stroke-width="2" stroke-miterlimit="10" stroke-linecap="round" stroke-linejoin="round"/>
<path d="M214.375 293.6H201.325V305.375H214.375V293.6Z" stroke="#f6f6f3" stroke-width="2" stroke-miterlimit="10" stroke-linecap="round" stroke-linejoin="round"/>
<path d="M140.65 288.125H187.15" stroke="#f6f6f3" stroke-width="2" stroke-miterlimit="10" stroke-linecap="round" stroke-linejoin="round"/>
<path d="M140.65 296.75H187.15" stroke="#f6f6f3" stroke-width="2" stroke-miterlimit="10" stroke-linecap="round" stroke-linejoin="round"/>
<path d="M140.65 305.375H187.15" stroke="#f6f6f3" stroke-width="2" stroke-miterlimit="10" stroke-linecap="round" stroke-linejoin="round"/>
<path d="M2.94998 411.875C25.675 399.2 46.75 385.7 68.5 371.375C89.65 357.425 110.95 343.25 134.65 333.875" stroke="#f6f6f3" stroke-width="2" stroke-miterlimit="10" stroke-linecap="round" stroke-linejoin="round"/>
</svg>
