<svg width="100" height="100" viewBox="0 0 100 100" fill="none" xmlns="http://www.w3.org/2000/svg" class="icon-link icon-link--active"><g clip-path="url(#clip0_40_9)"><path d="M52.8979 1.94729L54.4404 5.72641C56.6916 11.2425 63.5837 13.0889 68.2914 9.43745L71.5175 6.93587C73.7334 5.2171 76.9169 7.05499 76.5364 9.83372L75.9822 13.8778C75.1738 19.7805 80.2195 24.8262 86.1222 24.0178L90.1663 23.4636C92.945 23.0831 94.7829 26.2666 93.0641 28.4825L90.5626 31.7086C86.9111 36.4163 88.7587 43.3085 94.2736 45.5596L98.0527 47.1022C100.649 48.1621 100.649 51.8379 98.0527 52.8979L94.2736 54.4404C88.7575 56.6915 86.9111 63.5837 90.5626 68.2914L93.0641 71.5175C94.7829 73.7334 92.945 76.9169 90.1663 76.5364L86.1222 75.9822C80.2195 75.1738 75.1738 80.2195 75.9822 86.1222L76.5364 90.1663C76.9169 92.945 73.7334 94.7829 71.5175 93.0641L68.2914 90.5626C63.5837 86.9111 56.6916 88.7587 54.4404 94.2736L52.8979 98.0527C51.8379 100.649 48.1621 100.649 47.1022 98.0527L45.5596 94.2736C43.3085 88.7575 36.4164 86.9111 31.7086 90.5626L28.4825 93.0641C26.2666 94.7829 23.0831 92.945 23.4636 90.1663L24.0179 86.1222C24.8262 80.2195 19.7805 75.1738 13.8778 75.9822L9.83372 76.5364C7.05499 76.9169 5.2171 73.7334 6.93587 71.5175L9.43745 68.2914C13.0889 63.5837 11.2413 56.6915 5.72642 54.4404L1.94729 52.8979C-0.649098 51.8379 -0.649098 48.1621 1.94729 47.1022L5.72642 45.5596C11.2425 43.3085 13.0889 36.4163 9.43745 31.7086L6.93587 28.4825C5.2171 26.2666 7.05499 23.0831 9.83372 23.4636L13.8778 24.0178C19.7805 24.8262 24.8262 19.7805 24.0179 13.8778L23.4636 9.83372C23.0831 7.05499 26.2666 5.2171 28.4825 6.93587L31.7086 9.43745C36.4164 13.0889 43.3085 11.2413 45.5596 5.72641L47.1022 1.94729C48.1621 -0.649098 51.8379 -0.649098 52.8979 1.94729V1.94729Z" fill="#7539AF"/> <g filter="url(#filter0_d_40_9)"><path d="M70.443 16.0087L7.35645 43.6124L30.1114 57.1L37.142 72.1411L37.1542 72.1666L53.9845 71.2513L76.5085 84.6028L70.443 16.0087Z" fill="url(#paint0_linear_40_9)"/></g> <path d="M70.443 16.0087L76.5085 84.6028L7.35645 43.6124L70.443 16.0087Z" fill="url(#paint1_linear_40_9)"/> <path d="M30.1113 57.0999L37.142 72.141L70.3736 16.0791L30.1113 57.0999Z" fill="url(#paint2_linear_40_9)"/> <path d="M53.9846 71.2513L70.443 16.0087L70.3737 16.0792L37.1421 72.1411L37.1542 72.1666L53.9846 71.2513Z" fill="url(#paint3_linear_40_9)"/></g> <defs><filter id="filter0_d_40_9" x="-2.01355" y="4.46867" width="97.9921" height="97.4341" filterUnits="userSpaceOnUse" color-interpolation-filters="sRGB"><feFlood flood-opacity="0" result="BackgroundImageFix"/> <feColorMatrix in="SourceAlpha" type="matrix" values="0 0 0 0 0 0 0 0 0 0 0 0 0 0 0 0 0 0 127 0" result="hardAlpha"/> <feOffset dx="5.05" dy="2.88"/> <feGaussianBlur stdDeviation="7.21"/> <feColorMatrix type="matrix" values="0 0 0 0 0.176471 0 0 0 0 0.0823529 0 0 0 0 0.286275 0 0 0 0.45 0"/> <feBlend mode="normal" in2="BackgroundImageFix" result="effect1_dropShadow_40_9"/> <feBlend mode="normal" in="SourceGraphic" in2="effect1_dropShadow_40_9" result="shape"/></filter> <linearGradient id="paint0_linear_40_9" x1="19.202" y1="23.605" x2="88.3528" y2="64.5985" gradientUnits="userSpaceOnUse"><stop stop-color="#462E2C"/> <stop offset="1" stop-color="#6A3636"/></linearGradient> <linearGradient id="paint1_linear_40_9" x1="41.9103" y1="64.1201" x2="70.4224" y2="16.0237" gradientUnits="userSpaceOnUse"><stop stop-color="#FFDE00"/> <stop offset="0.24" stop-color="#FFDE02"/> <stop offset="0.38" stop-color="#FFDF0A"/> <stop offset="0.49" stop-color="#FFE118"/> <stop offset="0.59" stop-color="#FFE32C"/> <stop offset="0.67" stop-color="#FFE746"/> <stop offset="0.76" stop-color="#FFEB65"/> <stop offset="0.83" stop-color="#FFF08B"/> <stop offset="0.9" stop-color="#FFF5B6"/> <stop offset="0.97" stop-color="#FFFBE6"/> <stop offset="1" stop-color="white"/></linearGradient> <linearGradient id="paint2_linear_40_9" x1="50.2225" y1="16.0926" x2="50.2206" y2="72.1552" gradientUnits="userSpaceOnUse"><stop offset="0.23" stop-color="#FFDE00"/> <stop offset="0.24" stop-color="#FFD902"/> <stop offset="0.36" stop-color="#FFAF1C"/> <stop offset="0.48" stop-color="#FF8C32"/> <stop offset="0.59" stop-color="#FF7143"/> <stop offset="0.71" stop-color="#FF5E4F"/> <stop offset="0.83" stop-color="#FF5256"/> <stop offset="0.96" stop-color="#FF4F59"/></linearGradient> <linearGradient id="paint3_linear_40_9" x1="53.7706" y1="72.1811" x2="53.7729" y2="16.0226" gradientUnits="userSpaceOnUse"><stop offset="0.09" stop-color="#FF4F59"/> <stop offset="0.65" stop-color="#FFDE00"/></linearGradient> <clipPath id="clip0_40_9"><rect width="100" height="100" fill="white"/></clipPath></defs></svg>