<svg width="40" height="40" viewBox="0 0 40 40" fill="none" xmlns="http://www.w3.org/2000/svg">
<path d="M17.5359 0C16.3185 -1.12678e-07 15.1509 0.483616 14.2901 1.34446L0.768219 14.8666C0.256067 15.3788 -4.19303e-06 16.05 0 16.7213C4.19313e-06 17.3926 0.256084 18.0638 0.768233 18.576L9.62954 27.4373V11.7495C9.62954 10.5788 10.5712 9.6297 11.7419 9.6297C16.6881 9.6297 28.7279 9.6297 30.3701 9.6297L39.9996 0.000136473L17.5359 0Z" fill="#9384d1"/>
<path d="M9.62979 30.3703H28.2505C29.4213 30.3703 30.3703 29.4212 30.3703 28.2505V12.5626L39.2317 21.424C39.7438 21.9362 39.9999 22.6074 39.9999 23.2787C39.9999 23.95 39.7438 24.6212 39.2317 25.1334L25.7098 38.6555C24.849 39.5164 23.6814 40 22.464 40L0.000244141 39.9999L9.62979 30.3703Z" fill="#9384d1"/>
</svg>
